<?xml version="1.0" encoding="UTF-8" standalone="no"?>
<svg
   xmlns:dc="http://purl.org/dc/elements/1.1/"
   xmlns:cc="http://creativecommons.org/ns#"
   xmlns:rdf="http://www.w3.org/1999/02/22-rdf-syntax-ns#"
   xmlns:svg="http://www.w3.org/2000/svg"
   xmlns="http://www.w3.org/2000/svg"
   xmlns:xlink="http://www.w3.org/1999/xlink"
   xmlns:sodipodi="http://sodipodi.sourceforge.net/DTD/sodipodi-0.dtd"
   xmlns:inkscape="http://www.inkscape.org/namespaces/inkscape"
   width="585.96057"
   height="354.77567"
   viewBox="0 0 585.96057 354.77567"
   version="1.1"
   id="svg11"
   sodipodi:docname="brussels.svg"
   inkscape:version="0.92.3 (2405546, 2018-03-11)">
  <metadata
     id="metadata17">
    <rdf:RDF>
      <cc:Work
         rdf:about="">
        <dc:format>image/svg+xml</dc:format>
        <dc:type
           rdf:resource="http://purl.org/dc/dcmitype/StillImage" />
        <dc:title />
      </cc:Work>
    </rdf:RDF>
  </metadata>
  <defs
     id="defs15" />
  <sodipodi:namedview
     pagecolor="#ffffff"
     bordercolor="#666666"
     borderopacity="1"
     objecttolerance="10"
     gridtolerance="10"
     guidetolerance="10"
     inkscape:pageopacity="0"
     inkscape:pageshadow="2"
     inkscape:window-width="1600"
     inkscape:window-height="794"
     id="namedview13"
     showgrid="false"
     fit-margin-top="0"
     fit-margin-left="0"
     fit-margin-right="0"
     fit-margin-bottom="0"
     inkscape:zoom="0.39333333"
     inkscape:cx="-134.13837"
     inkscape:cy="177.804"
     inkscape:window-x="0"
     inkscape:window-y="27"
     inkscape:window-maximized="1"
     inkscape:current-layer="svg11" />
  <path
     id="leaf"
     d="m 279.48027,342.16168 c -0.0491,7.0149 -2.7854,12.616 -9.6576,12.614 -7.2644,-0.002 -15.488,-14.137 -35.871,-23.848 -18.222,-8.6818 -36.068,-12.586 -52.23,-12.614 -19.969,-0.0347 -53.649,9.6343 -85.538995,10.052 -30.08,0.39384 -57.29,-13.939 -74.502,-32.718 C 8.8346746,281.63168 -0.08932541,259.40968 6.7458651e-4,239.27868 0.11378459,213.90068 9.9413746,189.01468 32.324675,170.29568 c 16.294,-13.627 35.116,-19.246 56.96,-19.315 32.720995,-0.10341 65.656995,16.73 86.524995,33.309 30.609,24.319 58.744,56.638 78.247,91.649 11.101,19.929 25.516,53.222 25.425,66.224 z"
     style="fill:#e1e1e1;fill-opacity:1"
     inkscape:connector-curvature="0" />
  <use
     xlink:href="#leaf"
     transform="matrix(-1,0,0,1,585.96054,-9.9943577e-8)"
     id="use5"
     style="fill:#e1e1e1;fill-opacity:1"
     x="0"
     y="0"
     width="100%"
     height="100%" />
  <path
     d="m 350.04027,0.0016799 c 26.469,-0.15281 45.029,10.1590001 60.393,25.2280001 16.558,16.24 24.63,37.548 24.752,61.691 0.11823,23.288 -7.9523,39.95 -17.032,52.509 -14.835,20.519 -31.873,33.736 -49.341,49.783 -28.278,25.979 -45.83,49.119 -60.556,78.05 -3.6335,7.1382 -6.7536,17.776 -15.279,17.776 -8.5251,0 -11.645,-10.638 -15.279,-17.776 -14.726,-28.93 -32.278,-52.071 -60.556,-78.05 -17.468,-16.048 -34.507,-29.265 -49.341,-49.783 -9.0795,-12.558 -17.15,-29.221 -17.032,-52.509 0.12263,-24.143 8.1946,-45.451 24.752,-61.691 15.364,-15.069 33.924,-25.3810001 60.393,-25.2280001 27.318,0.15772 44.667,9.595 57.063,25.4250001 12.395,-15.8300001 29.745,-25.2680001 57.063,-25.4250001 z"
     id="path7"
     style="fill:#ededed;fill-opacity:1"
     inkscape:connector-curvature="0" />
  <path
     d="m 314.37027,36.07168 c 9.0996,-6.7032 20.826,-11.023 32.126,-10.84 16.275,0.26279 31.576,5.5213 42.572,16.162 12.214,11.818 20.415,27.555 19.907,47.106 -0.69909,26.9 -15.259,41.209 -35.477,61.888 -13.801,14.115 -26.907,21.435 -46.909,43.755 -7.8379,8.7464 -23.607,31.089 -33.608,52.039 -10.002,-20.95 -25.771,-43.293 -33.608,-52.039 -20.002,-22.32 -33.107,-29.64 -46.909,-43.755 -20.218,-20.678 -34.778,-34.988 -35.477,-61.888 -0.50809,-19.55 7.6926,-35.287 19.907,-47.106 10.997,-10.64 26.297,-15.899 42.572,-16.162 11.3,-0.18246 23.027,4.137 32.126,10.84 9.2256,6.796 15.679,15.399 21.389,26.805 5.7101,-11.406 12.163,-20.009 21.389,-26.805 z"
     id="path9"
     style="fill:#e1e1e1;fill-opacity:1"
     inkscape:connector-curvature="0" />
</svg>
