<?xml version="1.0" encoding="UTF-8" standalone="no"?>
<svg
   xmlns:dc="//purl.org/dc/elements/1.1/"
   xmlns:cc="//creativecommons.org/ns#"
   xmlns:rdf="//www.w3.org/1999/02/22-rdf-syntax-ns#"
   xmlns:svg="//www.w3.org/2000/svg"
   xmlns="//www.w3.org/2000/svg"
   xmlns:sodipodi="//sodipodi.sourceforge.net/DTD/sodipodi-0.dtd"
   xmlns:inkscape="//www.inkscape.org/namespaces/inkscape"
   width="307.66104"
   height="322.19907"
   viewBox="0 0 288.43221 302.06161"
   id="svg2"
   version="1.1"
   sodipodi:docname="flanders.svg"
   inkscape:version="0.92.3 (2405546, 2018-03-11)">
  <sodipodi:namedview
     pagecolor="#ffffff"
     bordercolor="#666666"
     borderopacity="1"
     objecttolerance="10"
     gridtolerance="10"
     guidetolerance="10"
     inkscape:pageopacity="0"
     inkscape:pageshadow="2"
     inkscape:window-width="1600"
     inkscape:window-height="794"
     id="namedview23"
     showgrid="false"
     inkscape:zoom="1.10625"
     inkscape:cx="-172.84453"
     inkscape:cy="114.43498"
     inkscape:window-x="0"
     inkscape:window-y="27"
     inkscape:window-maximized="1"
     inkscape:current-layer="svg2"
     fit-margin-top="0"
     fit-margin-left="0"
     fit-margin-right="0"
     fit-margin-bottom="0"
     units="px" />
  <defs
     id="defs4" />
  <metadata
     id="metadata7">
    <rdf:RDF>
      <cc:Work
         rdf:about="">
        <dc:format>image/svg+xml</dc:format>
        <dc:type
           rdf:resource="//purl.org/dc/dcmitype/StillImage" />
        <dc:title />
      </cc:Work>
    </rdf:RDF>
  </metadata>
  <path
     id="path4232"
     d="m 233.34819,0.00476666 c -0.56762,0 -1.1623,0.01356 -1.77051,0.04061 -7.56863,0.216217 -9.74451,0.797367 -16.67785,4.36545604 -6.35226,3.28428 -10.51496,7.0956563 -15.23228,14.0158473 -4.29794,6.284677 -7.29842,14.501807 -8.14976,22.205597 -1.32454,12.136615 -3.45998,23.016815 -5.5549,28.246995 -1.27041,3.20316 -4.68987,7.90679 -6.66306,9.17704 -0.7434,0.4865 -1.31101,1.06772 -1.21643,1.32446 0.20276,0.60822 3.17617,1.10832 5.05479,0.83797 2.60848,-0.37838 6.67668,-2.12191 9.56919,-4.06812 2.12191,-1.43264 2.60848,-1.40566 2.27062,0.16217 -0.86504,4.1357 -1.06772,6.01441 -1.17591,11.09627 -0.1351,6.62261 0.37846,9.1632 2.94642,14.299568 1.43265,2.87883 4.36546,6.82531 4.75745,6.41986 0.0946,-0.0946 -0.0947,-1.1623 -0.39199,-2.39226 -1.25687,-4.93315 -1.43265,-7.501038 -0.8109,-11.852878 1.09479,-7.81222 3.00039,-13.37995 7.27135,-21.09759 0.97307,-1.78405 2.25709,-4.18976 2.8247,-5.3386 0.58115,-1.14877 1.74345,-3.25722 2.56796,-4.68987 2.36519,-4.05458 2.54089,-3.43291 2.27054,8.40659 -0.10811,5.40619 -0.39192,10.5957 -0.59468,11.54224 -0.20269,0.94608 -0.28381,1.79758 -0.18916,1.89215 0.27028,0.27035 1.86509,-1.7975 3.56802,-4.62228 2.90589,-4.81151 5.79818,-11.89363 6.31174,-15.40759 0.16217,-1.04073 0.44597,-2.32467 0.64874,-2.83823 0.29734,-0.79745 0.37846,-7.987524 0.16224,-13.339965 -0.0541,-1.297473 -0.0271,-1.337996 1.28394,-1.229887 1.41911,0.121646 7.16317,-0.93254 7.81221,-1.432646 0.2163,-0.162169 0.93262,-0.473042 1.60835,-0.702791 2.20303,-0.743314 7.36593,-4.770986 7.36593,-5.757586 0,-0.229755 -0.44597,-0.43252 -0.97306,-0.43252 -2.44632,0 -5.62249,-2.486832 -6.28476,-4.933148 -0.21622,-0.8109 -0.28381,-2.432785 -0.14863,-3.581548 0.35139,-3.027461 2.41924,-5.271092 6.02786,-6.555027 6.59555,-2.365198 11.74523,0 15.00237,6.879359 1.36506,2.878829 1.43257,3.243757 1.40558,6.663141 -0.0676,7.514564 -1.79758,11.29926 -10.27198,22.381678 -1.25695,1.64887 -2.79771,3.75732 -3.43292,4.7034 -0.62174,0.94608 -1.24342,1.81103 -1.36506,1.90569 -0.12164,0.10811 -1.32453,1.82456 -2.67606,3.82483 -1.33808,1.98681 -3.73026,5.46024 -5.29808,7.70379 -8.17669,11.66373 -10.69105,17.63746 -13.3938,31.774788 -0.86503,4.56823 -0.90555,7.32541 -0.16224,11.56915 1.82465,10.33965 7.14971,18.94846 20.81386,33.62635 6.20356,6.66314 10.77178,12.894 13.2723,18.11111 1.13531,2.36519 1.29755,3.041 1.31101,5.85216 0.0136,3.51404 -0.31088,4.21683 -2.87876,6.29822 -1.95974,1.58127 -4.20329,1.72998 -7.96061,0.52709 -4.7034,-1.50024 -7.75762,-3.41938 -11.58299,-7.29834 -1.89215,-1.90569 -4.09518,-4.40606 -4.8791,-5.56836 -2.16251,-3.16264 -7.94677,-11.9613 -9.19011,-14.01585 -1.52723,-2.50037 -2.48684,-4.02759 -4.64934,-7.33886 -1.0272,-1.58137 -1.93268,-3.01401 -2.0138,-3.20317 -0.18923,-0.41898 -6.58202,-10.3258 -7.74455,-11.97513 -2.35174,-3.32481 -3.05453,-4.25735 -6.5415,-8.69032 -3.78438,-4.79805 -13.55603,-14.98854 -17.4483,-18.19185 -4.46011,-3.66266 -9.78525,-6.87936 -18.82697,-11.353078 -5.1629,-2.55443 -9.38004,-4.8385 -9.36619,-5.08178 0,-0.27028 0.95953,-0.45951 2.62193,-0.51357 2.77072,-0.0676 5.73059,-1.20289 7.56869,-2.89236 0.85151,-0.77038 0.90556,-0.78383 2.29761,-0.12156 2.94642,1.40558 7.14972,1.16229 8.66341,-0.51364 0.62174,-0.68926 0.56769,-0.74332 -1.05419,-1.45964 -2.62201,-1.16237 -3.51403,-2.73012 -3.51403,-6.14958 v -2.83823 l 1.90568,-0.44597 c 2.37873,-0.55416 5.39266,-2.4058 6.79832,-4.17631 1.25688,-1.60835 2.52736,-4.27088 2.54089,-5.35213 0,-0.60822 -0.20276,-0.48658 -1.12177,0.62174 -1.22989,1.50016 -4.01407,3.0004 -5.5549,3.0004 -1.85156,0 -4.379,-1.90569 -4.379,-3.31127 0,-0.25682 0.79745,-0.56769 1.81111,-0.71632 2.87876,-0.41899 5.00067,-1.87863 5.59535,-3.83837 0.22975,-0.74339 0.12164,-0.79744 -1.6218,-0.62174 -4.12225,0.39191 -4.66288,-0.8785 -4.73047,-10.880201 l -0.054,-7.446977 0.9191,-0.743393 c 0.51355,-0.418982 1.71645,-1.148764 2.68959,-1.635337 2.09484,-1.067719 3.987,-3.13557 5.02773,-5.473777 0.86496,-1.946211 1.43265,-8.055186 0.74332,-8.055186 -0.21623,0 -0.51357,0.37838 -0.66228,0.851422 -0.47303,1.581356 -2.40571,4.284412 -3.55455,4.960218 -1.60827,0.95961 -3.37886,0.851495 -4.8791,-0.297341 -0.70279,-0.540628 -1.28394,-1.216435 -1.28394,-1.500238 0,-0.28381 0.58115,-1.013664 1.29747,-1.608347 4.12225,-3.392394 6.67668,-11.569154 5.59543,-17.908115 -0.50011,-2.973407 -1.79758,-7.2578253 -2.5409,-8.4473423 -0.0405,-0.06759 -1.35152,0.648737 -2.91935,1.608347 -1.56782,0.95961 -4.04113,2.203029 -5.48731,2.770648 -2.48683,0.9866743 -2.94634,1.0407283 -9.09553,1.0407283 -3.5681,0 -10.00133,-0.121641 -14.31266,-0.256819 -4.29795,-0.148631 -9.33928,-0.108109 -11.19084,0.08112 -3.91948,0.391918 -4.91961,0.919008 -9.06862,4.892553 -1.47318,1.405655 -3.47344,3.027461 -4.46011,3.595153 -2.1895,1.27041 -5.70354,2.203029 -8.2036,2.203029 -1.04065,0 -2.98686,0.202685 -4.33847,0.459504 -2.74358,0.500106 -3.35179,1.108247 -2.8247,2.838234 0.18924,0.608215 0.55416,2.067851 0.8109,3.243757 0.47305,2.135443 0.45959,2.175966 -0.68926,3.622149 -1.63541,2.08131 -1.89215,3.338261 -2.14897,10.717957 -0.0946,2.567957 -0.0271,4.757454 0.16224,4.865562 0.17562,0.108109 1.04066,-0.06759 1.90562,-0.418987 2.00033,-0.797368 4.90615,-0.500027 6.54149,0.662274 0.64874,0.459505 1.67594,1.608347 2.28416,2.554425 0.93254,1.473168 1.0947,2.135437 1.0947,4.324934 0,1.419114 -0.24328,3.311276 -0.54062,4.216826 -0.29734,0.89203 -0.6622,2.1895 -0.79737,2.8653 -0.13518,0.68926 -1.01367,2.27062 -1.93276,3.52749 -2.94634,4.00061 -7.97368,6.47391 -13.217706,6.48744 h -2.17596 l -1.40566,-2.18949 c -1.70293,-2.70306 -3.29774,-4.44658 -5.298,-5.75759 -1.35161,-0.89202 -1.89223,-1.01366 -4.58176,-0.97314 -5.40619,0.054 -9.23087,2.1895 -11.06935,6.16311 -0.90556,1.95975 -1.00013,2.55443 -0.87849,5.62241 l 0.12164,3.43292 -1.45963,-0.054 c -1.67594,-0.054 -3.48705,-1.58128 -6.8929,-5.8657 -5.81164,-7.28489 -8.20359,-12.46109 -9.62302,-20.976099 -0.68933,-4.054657 -0.6758,-3.824908 -0.21621,-5.919749 0.71625,-3.378857 2.23002,-5.78465 5.73051,-9.230868 3.97355,-3.89242 4.44658,-4.987202 3.05446,-7.109114 -0.48649,-0.743386 -1.31101,-1.567824 -1.8381,-1.824564 -0.67573,-0.337942 -1.10824,-0.55416 -1.35153,-0.810978 l -8.31201,-5.284551 -2.5139,-0.216217 c -2.36519,-0.189232 -2.56789,-0.135178 -3.55456,0.851501 -0.89202,0.892024 -1.05419,1.36506 -1.05419,3.122038 0,1.135311 -0.1757,2.392262 -0.39191,2.797712 -0.54063,1.000132 -1.75706,0.946078 -2.45985,-0.135179 -0.63521,-0.95961 -0.87849,-4.054583 -0.39192,-4.838493 0.1757,-0.283809 0.36493,-1.351527 0.41898,-2.338207 0.14864,-2.486833 -0.86503,-3.568089 -3.689728,-3.933016 L 24.996,15.898455 c -0.486574,-0.04061 -0.878492,0.06751 -1.662407,0.378381 -1.500232,0.892023 -2.392256,2.09492 -2.716588,3.703267 -0.175694,0.86496 0.135179,1.82457 1.324544,4.081653 0.851422,1.608347 1.567745,3.230225 1.567745,3.581621 0,0.95961 -1.148843,2.040787 -2.148975,2.040787 -0.905477,0 -1.324458,-0.459504 -3.216693,-3.541025 -1.432573,-2.311138 -2.675993,-2.838234 -4.608744,-1.959742 -3.7302517,2.189497 -5.7711177,5.933281 -7.3929237,10.08283 -0.783909,2.230093 -0.729855,2.973407 0.418988,5.271013 1.39205,2.797711 2.459769,3.270747 6.7577187,3.014007 3.960006,-0.216296 4.838492,0.25674 4.838492,2.567878 0,1.040734 -0.256739,1.51377 -1.283935,2.284153 -1.41912,1.094709 -3.040999,1.311005 -6.379339,0.824432 -1.9462037,-0.270272 -2.2164817,-0.229749 -3.2436777,0.648736 -0.973147,0.83797 -1.094788,1.189365 -1.040734,2.892289 l 0.05416,1.946289 c 1.175827,3.216615 -4.406058,2.432779 3.513956,9.636088 0.5270957,0.3514 1.6488687,0.74339 2.5003697,0.87849 1.662401,0.27035 1.94621,0.0947 5.771118,-3.33826 3.28428,-2.94642 6.257613,-1.2029 6.068459,3.55456 -0.189232,4.36546 -2.90582,6.78478 -8.568829,7.55516 -1.905688,0.25674 -3.635675,0.36485 -3.851899,0.22975 -0.229749,-0.13518 -0.405449,-0.0676 -0.405449,0.16217 0,0.58115 3.203161,2.54089 5.703531,3.48697 1.716456,0.64873 2.676066,0.77037 5.027726,0.60821 1.608347,-0.0946 3.270754,-0.39192 3.716726,-0.62174 1.378591,-0.74332 1.689465,-0.16217 1.432646,2.63554 -0.270272,2.98694 -0.946078,4.82504 -2.203029,5.96035 -2.081383,1.90569 -3.635602,2.08138 -7.663275,0.93254 -1.419114,-0.40545 -2.581409,-0.64873 -2.581409,-0.54062 0,0.0946 0.256819,0.66227 0.55416,1.24342 0.919009,1.78404 3.054452,3.35186 5.811641,4.24389 1.432646,0.47304 2.75711,0.9866 2.946342,1.17583 0.202759,0.18922 -0.189232,0.79737 -0.946078,1.47317 -1.648869,1.45963 -3.473439,1.51377 -6.64961,0.20276 -2.865297,-1.18936 -3.000397,-1.18936 -2.703134,0.0946 0.135178,0.58115 0.324411,1.71645 0.418987,2.54089 0.202765,1.77051 1.392124,4.203288 2.757183,5.649468 3.230232,3.41939 10.568791,3.74379 15.975055,0.68926 1.121778,-0.6352 2.21656,-1.14876 2.432784,-1.14876 0.662268,0 0.418981,3.0004 -0.364934,4.54116 -0.40545,0.81097 -1.473168,2.09492 -2.365192,2.85176 l -1.608346,1.37859 h 1.892156 c 2.432784,-0.0136 8.014447,-1.20289 11.461507,-2.44631 3.12211,-1.13531 3.41946,-1.17583 3.68973,-0.47304 0.27027,0.71632 -2.91935,13.06931 -3.94655,15.25919 -0.4865,1.01367 -1.64887,2.70313 -2.60848,3.73026 -1.55421,1.67593 -2.00026,1.91922 -3.946479,2.23009 -1.621879,0.25674 -2.662533,0.21622 -3.946554,-0.1757 -2.17596,-0.64873 -3.054452,-1.43265 -4.041052,-3.59515 -0.64881,-1.41912 -0.743387,-2.13544 -0.527169,-4.31141 0.162241,-1.62188 0.108108,-2.59494 -0.121641,-2.59494 -0.635205,0 -3.081521,3.12204 -4.014061,5.13584 -2.108452,4.52769 -2.189497,8.32584 -0.28381,12.52875 1.797501,3.97354 5.892759,6.87936 11.123176,7.89295 1.946283,0.37846 3.18971,0.39192 5.86578,0.0405 7.10911,-0.95961 11.92054,-3.47351 14.90779,-7.81221 1.2029,-1.75706 1.72999,-2.18957 3.37893,-2.71667 3.31127,-1.06772 7.12265,-3.40585 10.35272,-6.36572 1.2029,-1.09479 2.10846,-0.90556 2.10846,0.44597 0,0.68926 2.27054,5.7306 3.1491,7.00101 0.41891,0.62174 0.12164,1.02719 -2.63555,3.66266 -1.71645,1.63541 -4.54115,4.0682 -6.2982,5.40619 -3.8519,2.95988 -11.89364,8.35277 -12.44803,8.35277 -0.22975,0 -0.63528,0.21621 -0.91908,0.47303 -0.77039,0.70279 -1.75699,1.27041 -4.31141,2.51383 -4.94668,2.39226 -7.89295,3.1897 -12.177369,3.25721 -2.446316,0.0405 -2.892288,-0.054 -4.149239,-1.01366 -1.540755,-1.17583 -1.689465,-1.89216 -0.837963,-3.96001 0.864954,-2.06785 0.743313,-4.02759 -0.310873,-5.02773 -1.419121,-1.32454 -3.108512,-1.6624 -4.960146,-0.97314 -3.581621,1.78404 -7.757614,0.0405 -12.312692,4.21683 -2.919352,2.05439 -3.257216,4.10871 -1.21635,7.19023 1.459637,2.21656 1.608347,4.02759 0.391918,5.24402 -0.783915,0.77039 -0.95961,0.79738 -2.649001,0.33787 -1.0001327,-0.27028 -1.8922347,-0.60822 -2.0003437,-0.75685 -0.648737,-0.90556 -2.567877,-1.97327 -3.513956,-1.97327 -2.297684,0 -3.757321,1.39212 -4.68986699,4.48717 -1.10832,6.8523 0.148631,8.6365 0.86495999,11.42075 0.202764,1.35153 1.797573,2.78418 3.122037,2.78418 1.500238,0 2.311138,-0.43244 5.068327,-2.73013 3.1220437,-2.59494 5.1359127,-2.55442 5.8116407,0.12165 0.594682,2.36519 -2.243552,4.8791 -6.3927907,5.62249 -2.284147,0.4189 -3.716799,1.00013 -4.189835,1.71645 -0.162163,0.22975 -0.28381,1.05419 -0.297342,1.83811 0.608215,3.48696 3.933017,5.56835 5.9603507,8.43349 l 2.067851,1.91915 c 2.392262,2.14897 4.595291,2.66253 6.555033,1.51377 1.973274,-1.16238 2.824696,-3.08153 3.108506,-7.1092 0.351474,-4.70332 0.513637,-5.31153 1.797579,-6.71712 0.851501,-0.93261 1.256951,-1.1353 1.729987,-0.86503 0.527096,0.29734 0.648737,1.05419 0.689259,4.31148 0.02705,3.77078 0.09466,4.06812 1.270483,5.97381 2.473307,3.06798 9.474617,2.649 14.150416,-0.25682 2.40571,-1.55429 3.17609,-2.95988 3.21661,-5.93328 0.0271,-1.81104 -0.17569,-2.73013 -0.79736,-3.79785 -1.27049,-2.14897 -1.10832,-2.649 1.10824,-3.44645 l 1.94629,-0.68925 1.01359,1.00013 c 0.95961,0.95961 0.98667,1.17583 0.87848,4.36546 -0.0946,2.47338 0.0405,3.77085 0.52717,4.96021 0.55409,1.40559 2.09484,3.12205 2.79764,3.12205 0.12164,0 0.17578,-1.02713 0.10818,-2.29761 -0.1487,-2.71659 0.70279,-4.79798 4.00053,-9.63686 1.12178,-1.63534 2.13545,-3.43291 2.25709,-4.00053 0.41898,-1.91922 0.51363,-2.04086 1.56783,-1.91922 0.70279,0.0811 1.28393,0.5271 1.78404,1.39213 0.71632,1.22988 0.71632,1.36506 0.081,4.98721 -0.62167,3.55455 -0.56761,5.86569 0.1757,7.27127 0.2163,0.40545 0.5677,-0.0135 1.28402,-1.52722 1.28394,-2.71659 2.17596,-4.14924 4.02759,-6.50098 1.62189,-2.04079 2.6896,-4.91962 2.6896,-7.23075 0,-2.02734 0.66227,-3.64914 1.70293,-4.12218 1.85163,-0.83796 2.28407,1.5137 1.56782,8.55499 -0.33794,3.2167 -0.054,6.63616 0.55408,6.63616 0.18924,0 0.62175,-0.64874 0.95961,-1.43266 0.32441,-0.78391 1.35154,-2.64908 2.29769,-4.16277 2.81116,-4.51416 5.56835,-11.37999 5.27101,-13.13697 -0.0947,-0.50003 0.21622,-2.02733 0.70279,-3.39239 0.66228,-1.91914 1.05419,-2.5003 1.70292,-2.59495 1.45972,-0.21622 2.14898,1.40558 1.87863,4.40606 -0.44597,4.89255 -0.43244,6.29821 0.054,7.43352 l 0.47304,1.14876 1.18936,-2.24355 c 0.64882,-1.22988 1.68947,-3.1491 2.28415,-4.28441 0.97307,-1.82457 1.10825,-2.45977 1.10825,-5.41965 0,-2.52743 0.13517,-3.5005 0.59468,-3.94655 0.81098,-0.8109 1.18936,-0.75685 1.86516,0.28381 0.44598,0.6758 0.48658,1.17583 0.18924,2.1895 -0.20277,0.72985 -0.55416,2.41932 -0.77046,3.78438 -0.33786,2.04079 -0.29727,2.74358 0.22983,4.09519 0.33786,0.90547 0.74331,1.63533 0.91901,1.63533 0.16217,0 0.41898,-0.70279 0.55416,-1.58128 0.13517,-0.86503 1.12178,-3.39239 2.18949,-5.62249 1.52723,-3.16256 1.97328,-4.50063 2.02733,-6.1495 0.121646,-3.23015 0.162166,-3.43292 0.770386,-3.43292 1.06771,0 1.44618,1.50024 1.17582,4.60875 -0.22975,2.54089 -0.1487,3.2167 0.55416,4.86556 0.45951,1.05426 1.14877,2.21657 1.5543,2.58149 0.70279,0.63521 0.72978,0.59469 0.74331,-1.02719 0.0136,-1.73 0.55416,-3.44645 2.59495,-8.25819 1.25695,-2.95988 1.82464,-5.56835 2.1625,-9.82601 0.18924,-2.45985 0.74332,-3.62215 1.71646,-3.62215 0.12164,0 0.52709,0.21622 0.87849,0.47304 0.50011,0.36493 0.68933,1.28394 0.8515,3.90595 0.18923,3.43292 0.47304,5.43318 0.83796,6.05493 0.10812,0.18923 0.86496,-1.01366 1.6894,-2.66253 0.81097,-1.64887 2.1625,-4.29795 3.01393,-5.87923 1.86517,-3.5005 2.77072,-7.98753 2.39226,-11.74523 l -0.25674,-2.45985 1.05418,0.25682 c 0.58115,0.14863 1.93268,0.68926 3.01393,1.21635 4.74392,2.31114 7.36594,3.20316 9.81217,3.35187 1.71646,0.10811 3.56809,0.56761 5.90622,1.51369 1.8787,0.75693 5.04126,1.81111 7.0416,2.35174 4.56823,1.22989 6.89282,2.37872 9.96058,4.90609 2.52735,2.08138 6.4333,6.35226 6.4333,7.02807 0,0.21622 -1.7975,0.4595 -4.28433,0.58115 -2.36527,0.1081 -5.21704,0.39191 -6.35235,0.60821 -6.02785,1.14876 -12.82633,4.3114 -17.58363,8.14977 -4.74391,3.83844 -6.91996,5.90629 -11.2585,10.7587 -4.91962,5.5143 -6.35227,6.67668 -9.21779,7.43353 -0.87858,0.22975 -5.77112,0.58114 -10.8802,0.77038 -5.581886,0.21621 -10.095896,0.58115 -11.366156,0.90555 -2.87875,0.74331 -5.81164,1.77051 -6.39279,2.24355 -0.25682,0.21622 -1.17583,0.75685 -2.02733,1.21635 -2.25708,1.21643 -6.13597,4.81151 -8.98789,8.35277 -1.36506,1.71645 -4.32501,5.06824 -6.56856,7.44697 -6.35227,6.79832 -9.89291,9.1363 -14.3265,9.48769 -3.12211,0.25682 -6.05492,-0.60814 -8.10901,-2.36519 l -1.59482,-1.35153 -0.87848,1.43265 c -0.74339,1.18936 -0.89203,1.95974 -0.89203,4.51416 0,2.77065 0.12165,3.27075 1.1623,4.94669 1.43265,2.33813 4.64935,4.14923 8.05519,4.54115 6.37926,0.74339 16.04272,-2.23001 21.21908,-6.52796 1.45971,-1.2029 2.04086,-1.12177 2.78418,0.35139 1.28401,2.55443 2.56795,3.81138 4.98721,4.94669 1.87869,0.87849 2.45984,1.35153 2.63554,2.13544 0.90555,3.98707 1.47317,5.0142 4.04113,7.25782 l 1.39212,1.21636 -0.91908,3.33833 c -0.50003,1.82457 -1.39213,4.00061 -1.98681,4.85203 -1.52723,2.1895 -5.5143,5.01427 -8.05519,5.74413 -1.17583,0.32433 -2.66254,0.75684 -3.32481,0.95954 -1.94621,0.58122 -8.28509,0.89202 -9.13629,0.43251 -0.67572,-0.36493 -0.74331,-0.66227 -0.52709,-2.81117 0.27027,-2.74365 -0.054,-4.36553 -1.17583,-5.79818 -0.89202,-1.12178 -3.00047,-1.79758 -4.85211,-1.55429 -4.05458,0.68933 -7.20369,2.95988 -9.17704,5.50084 l -1.3786,1.6624 c -1.40558,1.70293 -1.67593,3.02747 -0.86495,4.08166 0.25682,0.3244 1.50016,1.16229 2.77064,1.83809 2.56796,1.35153 3.81137,2.97341 3.43292,4.44658 -0.29735,1.17584 -1.04066,1.56783 -3.64914,1.89216 -1.86516,0.22975 -2.32467,0.13518 -4.29795,-0.90556 -2.81116,-1.4867 -4.28441,-1.74344 -6.17657,-1.08117 -1.14884,0.40544 -1.716455,0.91901 -2.378724,2.17596 -0.486574,0.90556 -0.878492,2.12191 -0.878492,2.70313 -0.324332,4.20329 0.905556,10.23123 1.905696,12.5426 0.79736,1.58136 1.71645,2.06786 3.73025,1.98681 1.64887,-0.054 2.62201,-0.58115 4.71694,-2.62201 1.39205,-1.338 1.98672,-1.6624 2.85168,-1.56782 1.51377,0.17569 2.0544,1.71645 1.21643,3.48704 -0.5001,1.02712 -1.10824,1.48671 -3.02747,2.25708 -2.74365,1.09471 -3.68973,2.27054 -3.73025,4.62228 -0.0271,0.85142 0.31088,2.09484 0.79737,2.94634 1.05427,2.17595 4.74392,5.06833 9.59611,5.93331 3.31127,0.54061 6.06845,-2.4463 6.52796,-7.0956 0.21622,-2.24363 0.41899,-2.78418 1.24342,-3.44645 1.14884,-0.90556 2.23002,-0.72986 3.28428,0.50002 0.52709,0.62175 0.68926,1.35161 0.6352,3.10859 -0.13517,4.14927 -0.054,4.58179 1.18937,5.85217 2.10837,1.95975 9.44693,-0.71634 12.38035,-2.83821 1.29756,-0.85142 2.45985,-2.87878 2.45985,-4.31143 0,-0.6758 -0.51356,-2.51391 -1.14884,-4.09519 -1.37852,-3.45997 -1.41911,-4.33847 -0.21622,-5.7306 0.77038,-0.87848 1.06772,-1.00013 1.62188,-0.64873 1.338,0.79744 2.45977,3.47351 2.74358,6.50098 0.22983,2.37872 0.44605,3.04099 1.16237,3.62214 1.25696,1.02712 2.10838,0.94608 1.72999,-0.14871 -0.5001,-1.43265 -0.36493,-4.17622 0.3108,-6.56849 0.36493,-1.25695 0.66227,-3.40592 0.66227,-4.79797 0,-2.40579 0.50011,-4.71693 1.16237,-5.46025 0.1757,-0.18922 0.55409,0.24322 0.83797,0.94608 0.41891,1.01367 0.45951,2.10838 0.1757,5.12231 -0.37846,4.18983 -0.0405,6.29821 1.22989,7.86604 0.89202,1.09478 1.45963,0.67572 0.8515,-0.64874 -0.392,-0.86503 -0.24329,-1.40566 1.33799,-4.59529 1.72999,-3.51403 1.79758,-3.74379 1.95975,-7.79837 0.0946,-2.29768 0.2838,-4.18984 0.43251,-4.18984 0.14863,0 0.56762,0.64874 0.94608,1.43265 0.48649,0.9866 0.75684,2.62201 0.87849,5.24402 0.14863,3.43292 0.2838,3.94648 1.216346,5.12231 1.67594,2.12198 1.90569,1.94629 1.66248,-1.25688 -0.18923,-2.52743 -0.0947,-3.10858 0.74331,-4.89263 2.00027,-4.27088 3.3248,-7.90678 3.75732,-10.36655 0.70279,-4.04113 1.29748,-3.041 1.36506,2.27053 0.0675,5.01428 0.67573,7.16325 2.59495,9.08247 1.29747,1.29755 1.81103,1.28402 1.47317,-0.054 -0.6352,-2.47339 -0.2838,-4.79806 1.18936,-7.91986 2.24356,-4.7034 3.32481,-7.77146 3.70327,-10.48805 0.78384,-5.48732 0.72978,-5.32515 1.72999,-5.56843 3.08152,-0.78384 5.60887,0.1081 6.3252,2.23009 0.27035,0.83797 0.0271,1.58128 -1.54076,4.41951 -2.83823,5.13592 -3.10858,6.19011 -2.35166,8.93407 0.47304,1.67593 0.72978,1.77051 1.50016,0.51356 0.31087,-0.50003 2.55443,-2.94634 4.97367,-5.43318 7.52818,-7.73071 9.29853,-10.69104 8.74414,-14.67788 -0.40545,-3.01394 -2.20302,-5.62242 -7.67672,-11.19085 -5.10885,-5.20342 -6.60909,-7.1361 -8.09595,-10.47421 -4.20329,-9.3662 1.71646,-15.38067 15.97506,-16.25878 2.50037,-0.16224 5.85216,-0.0676 8.28509,0.18915 4.81151,0.51364 10.51497,0.62175 12.79942,0.24329 l 1.62188,-0.28381 0.75685,1.79758 c 0.71633,1.67594 3.20316,9.96057 4.39252,14.66405 0.28381,1.16229 0.9866,3.90595 1.54076,6.10898 1.28394,5.08186 1.55422,8.74414 0.72979,10.32581 -0.72979,1.39212 -2.66254,2.63554 -4.10865,2.63554 -2.32467,0.0136 -5.46024,-2.74365 -6.67667,-5.87923 -0.40545,-1.04073 -0.89203,-1.94621 -1.06772,-2.00026 -0.18923,-0.0676 -0.72986,0.47303 -1.21635,1.18936 -1.44618,2.12191 -1.0678,6.75772 0.87849,10.51496 0.85142,1.64894 3.43291,4.40606 5.32506,5.70353 4.12226,2.81125 10.28506,3.58163 15.46142,1.91922 2.44624,-0.78391 3.18963,-1.25695 5.17636,-3.23023 1.27048,-1.2704 2.56796,-2.73012 2.89236,-3.24367 l 0.58115,-0.93255 2.8247,1.311 c 2.24363,1.04066 3.41946,1.338 5.69008,1.44611 2.89228,0.14871 4.40598,-0.29734 7.94677,-2.36519 0.66219,-0.39192 1.24342,-0.43252 2.21648,-0.16217 1.95975,0.54063 5.17644,-0.28381 8.10902,-2.05439 1.37859,-0.85143 2.8247,-1.7975 3.18963,-2.12192 0.91901,-0.81089 1.4461,-0.22974 2.55442,2.77065 1.31101,3.55456 1.13531,8.48733 -0.5001,13.63754 -1.82457,5.77112 -4.85203,10.01517 -9.13629,12.88016 -2.13545,1.44618 -2.55443,1.58128 -4.2033,1.41911 -2.31113,-0.21622 -3.63568,-1.41911 -4.8115,-4.37899 -1.5543,-3.89249 -1.94621,-4.63581 -2.79772,-5.23049 -1.24341,-0.87849 -3.18963,-0.70287 -5.24394,0.44597 l -2.17604,1.18936 c -3.23016,3.40593 -8.67725,7.19024 -9.39311,11.58299 -0.18916,0.77039 -0.0134,1.29748 0.70287,2.14898 0.8109,0.95961 1.33799,1.18936 3.33826,1.40558 1.311,0.14871 2.67606,0.43252 3.04099,0.62175 1.94621,1.02712 1.54076,3.44644 -0.75684,4.40605 -1.24342,0.5271 -1.89216,0.54063 -5.09532,0.12157 -2.0138,-0.27027 -4.08165,-0.39192 -4.60882,-0.25674 -1.56775,0.39192 -2.97341,1.72999 -2.98686,2.85177 -0.12165,4.55472 2.32467,10.00136 4.40598,14.19118 0.95961,1.9057 2.00034,2.66253 3.66274,2.66253 0.91901,0 1.98673,-1.05421 5.36559,-5.39266 2.5139,-3.20314 4.23036,-4.47365 5.44679,-4.00058 1.01367,0.39197 0.67572,2.29767 -0.74339,4.17626 -2.45977,3.21669 -2.67607,4.73042 -0.87849,6.48749 2.98694,2.79761 8.73107,5.25747 12.67716,5.24391 2.17604,-0.081 4.0006,-1.0947 4.70339,-2.56794 0.5271,-1.10826 0.55416,-1.75701 0.14864,-5.10884 -0.48649,-4.18975 -0.16217,-5.39266 1.54076,-5.83862 1.78412,-0.45951 2.97348,1.35148 2.97348,4.55468 0,3.31128 0.74332,5.5819 2.33813,7.05502 1.48671,1.45975 11.40691,-2.28405 12.89399,-3.56806 2.37873,-2.21651 2.87884,-4.9061 1.5543,-8.2851 -0.41898,-1.06771 -0.77038,-2.10844 -0.77038,-2.31117 0,-0.21617 0.74331,-0.71629 1.6624,-1.1082 1.06772,-0.45957 1.9732,-1.20291 2.54089,-2.12199 0.8109,-1.31099 0.85151,-1.62181 0.54063,-4.89258 -0.51356,-5.60895 -0.41899,-7.73071 0.40545,-8.63649 1.77051,-1.95975 3.77086,0.0405 4.18976,4.18983 0.31088,3.10851 1.24342,5.56836 2.5545,6.66315 1.05419,0.89197 2.48684,1.33799 2.13537,0.67574 -1.25688,-2.45986 -1.5137,-3.50052 -1.338,-5.50078 0.10811,-1.18937 0.54063,-2.82478 0.94608,-3.62215 0.40545,-0.81098 1.24342,-2.44631 1.85163,-3.64921 0.60822,-1.20282 1.22989,-2.1895 1.37859,-2.1895 0.44598,-0.0136 0.95954,1.22989 1.25695,3.02746 0.14863,0.94608 0.40545,1.97328 0.55409,2.29761 2.13544,4.56823 3.44644,6.10906 5.18997,6.10906 1.10824,0 1.12177,0.12157 0.1351,-2.36527 -1.06772,-2.67607 -1.05419,-4.89255 0.0405,-8.12286 1.12178,-3.31127 1.2435,-8.6634 0.24329,-11.01475 -1.39205,-3.25722 -0.18923,-4.51417 1.72999,-1.79758 0.74339,1.04065 1.21643,2.44631 1.62188,4.79797 0.32433,1.82457 0.91901,4.05467 1.31101,4.96022 0.77038,1.71646 2.27053,3.02746 3.23014,2.81117 0.50011,-0.12165 0.50011,-0.32434 0.0136,-1.66241 -0.66227,-1.8381 -0.72978,-6.10898 -0.12156,-7.64974 0.24321,-0.62174 0.43243,-2.44631 0.43243,-4.06811 0.0136,-2.81125 -0.0811,-3.14911 -2.09491,-7.24437 -2.45977,-5.00066 -2.83823,-6.82523 -1.94621,-9.1632 1.09479,-2.85177 2.73012,-3.60861 5.12238,-2.37873 1.97327,1.0272 2.73012,3.1761 3.06798,8.79874 0.36494,5.78457 1.16238,8.46041 3.23023,10.65029 0.74332,0.78391 1.43265,1.32453 1.5543,1.20289 0.10811,-0.1081 0.027,-1.08125 -0.20277,-2.14897 -0.58115,-2.70306 -0.52709,-6.60901 0.12164,-8.10902 0.28381,-0.68926 1.10824,-3.13557 1.81103,-5.44671 0.98668,-3.27075 1.27049,-4.86563 1.27049,-7.25782 0,-2.79771 -0.10811,-3.24376 -1.25695,-5.14937 -1.78404,-2.91935 -3.79784,-4.25743 -7.89295,-5.17644 -3.60861,-0.8109 -7.27128,-0.66227 -9.7991,0.37846 -1.18936,0.4865 -2.31114,0.78384 -2.48684,0.6622 -0.16216,-0.12165 -1.10824,-1.20282 -2.09491,-2.37873 -2.89229,-3.43291 -5.25748,-4.82496 -9.09554,-5.36559 -3.17617,-0.45958 -3.27075,-0.51364 -5.13592,-2.41932 -3.54102,-3.63561 -8.62265,-5.73053 -16.19188,-6.70367 -1.79758,-0.22975 -3.64921,-0.56761 -4.12225,-0.75684 -0.8109,-0.31088 -0.82444,-0.39192 -0.32433,-1.58129 1.67593,-3.86543 2.56788,-6.55502 3.1085,-9.44693 0.64882,-3.5411 0.77039,-10.73103 0.2163,-14.11042 -0.18923,-1.16238 -0.27035,-2.18958 -0.1757,-2.28416 0.22976,-0.22975 3.06799,2.83824 6.16304,6.66314 7.32541,9.05556 13.01548,14.73172 17.28606,17.25915 5.29808,3.13558 9.93366,4.51417 21.82729,6.55504 7.60922,1.311 9.62302,2.01379 11.00169,3.89241 1.32453,1.79758 1.72999,3.5681 2.21656,9.48769 0.52709,6.52797 1.06764,8.0821 3.20308,9.33928 2.29767,1.35153 2.58144,1.25695 1.93275,-0.59468 -1.00012,-2.85176 -1.05418,-5.94681 -0.18924,-11.42075 1.41908,-8.98788 1.01367,-13.28537 -1.60833,-16.58326 -1.44611,-1.83818 -2.00027,-2.27062 -5.01419,-4.02767 -1.28403,-0.74332 -2.32467,-1.54076 -2.32467,-1.77052 0,-0.22975 0.919,-1.41911 2.05431,-2.649 5.16291,-5.59542 7.4065,-10.78562 7.85215,-18.178 0.45951,-7.37947 -3.095,-16.17805 -10.62333,-26.19321 -3.41946,-4.55469 -3.63568,-5.14937 -3.10858,-8.7849 0.5001,-3.44645 1.12177,-4.68986 3.3654,-6.75772 4.04105,-3.73025 8.69032,-2.9734 11.70443,1.91922 0.87859,1.40559 1.16242,0.64874 0.7434,-2.00033 -0.83793,-5.28447 -2.66253,-7.96062 -6.70362,-9.85293 -1.93276,-0.90548 -2.70314,-1.04065 -5.67647,-1.02712 -2.90589,0.0136 -3.77085,0.18923 -5.71707,1.06772 -4.24388,1.94621 -6.86582,5.50077 -8.29816,11.24466 -0.47312,1.91923 -0.97315,3.48705 -1.12186,3.50051 -0.4189,0 -2.14889,-3.64914 -2.82469,-5.96028 -1.31101,-4.51416 -0.45951,-12.52875 1.68946,-15.97505 2.33813,-3.75732 5.21696,-6.23062 9.02865,-7.7307 2.3382,-0.91902 3.17617,-1.0272 6.67667,-1.01367 4.39253,0.0271 6.12251,0.5001 8.98789,2.43278 0.93253,0.62175 1.68937,0.97314 1.68937,0.78392 0,-1.13531 -2.60846,-4.39253 -4.75743,-5.91976 -8.29817,-5.919748 -18.381,-5.21696 -28.23393,2.00027 -2.87882,2.12191 -4.37898,2.98694 -4.37898,2.55442 0,-0.87849 4.68986,-5.3386 10.65029,-10.082818 0.91908,-0.72986 2.28414,-1.85164 3.04099,-2.48684 0.75685,-0.64874 2.649,-2.1895 4.20329,-3.43292 7.40654,-5.96034 15.50217,-14.8532 18.73237,-20.59779 4.16276,-7.40653 7.19022,-16.691684 8.40656,-25.747239 0.39197,-3.000397 0.1217,-7.622673 -0.45945,-7.622673 -0.18924,0 -0.33787,0.229749 -0.33787,0.500027 0,1.351528 -4.5548,11.785213 -7.19028,16.475615 -0.71628,1.25695 -3.98702,6.00088 -5.79813,8.39275 -3.91949,5.17644 -12.13661,13.38073 -16.23187,16.2188 -0.44605,0.31087 -1.72999,1.25695 -2.8653,2.10845 -2.48683,1.87862 -7.74455,4.54116 -8.29817,4.2033 -0.24329,-0.16217 0.13518,-1.21643 0.9866,-2.81125 1.41911,-2.60847 4.79798,-8.5819 5.46024,-9.60917 10.14973,-16.08347 15.75899,-29.693331 16.28647,-39.451678 0.36493,-6.757797 -1.10824,-13.691363 -4.00061,-18.894637 -2.00026,-3.568089 -7.81221,-9.2854623 -11.92054,-11.7183203 -7.08205,-4.17623 -11.92055,-5.48723504 -20.53013,-5.39265804 z M 44.563304,27.616634 v 0.297341 c -0.027,-0.05404 -0.027,-0.162169 0,-0.297341 z"
     style="fill:#e1e1e1;fill-opacity:1;fill-rule:nonzero"
     inkscape:connector-curvature="0" />
  <path
     id="path4234"
     stroke-miterlimit="4"
     d="m 46.923884,280.38379 c -1.46095,6.17442 -1.91461,11.34156 3.13718,15.39375 0.0692,-4.15219 0.92271,-7.65077 3.39094,-12.05663 -1.64549,-1.62242 -4.1983,-3.20642 -6.52812,-3.33712 z"
     style="fill:#e1e1e1;fill-opacity:1;fill-rule:nonzero;stroke:none;stroke-width:2.49010706px;stroke-linecap:butt;stroke-linejoin:miter;stroke-miterlimit:4;stroke-dasharray:none"
     inkscape:connector-curvature="0" />
  <path
     id="path4330"
     stroke-miterlimit="4"
     d="m 190.95771,297.0616 c -0.008,5.62081 -0.46904,11.91827 9.54227,17.46218 -1.73775,-5.54391 -2.6989,-10.01901 -2.14527,-14.54026 -2.32983,-1.90691 -5.20558,-2.82964 -7.397,-2.92192 z"
     style="fill:#e1e1e1;fill-opacity:1;fill-rule:nonzero;stroke:none;stroke-width:2.49010706px;stroke-linecap:butt;stroke-linejoin:miter;stroke-miterlimit:4;stroke-dasharray:none"
     inkscape:connector-curvature="0" />
  <path
     id="path4332"
     stroke-miterlimit="4"
     d="m 213.89455,309.4412 c 1.49939,-2.92186 2.17604,-6.67423 1.65318,-10.23433 3.02185,-2.28363 6.58193,-2.72964 8.92714,-2.18369 -0.59207,5.42853 -2.23755,9.49616 -10.58032,12.41802 z"
     style="fill:#e1e1e1;fill-opacity:1;fill-rule:nonzero;stroke:none;stroke-width:2.49010706px;stroke-linecap:butt;stroke-linejoin:miter;stroke-miterlimit:4;stroke-dasharray:none"
     inkscape:connector-curvature="0" />
  <path
     id="path4334"
     stroke-miterlimit="4"
     d="m 188.09733,256.73184 c -5.7592,-3.19102 -9.85754,-5.45932 -14.35571,-3.99069 2.66046,3.28329 5.42088,6.09753 7.61229,11.58761 3.66006,-2.16836 6.26669,-4.67503 6.74342,-7.59692 z"
     style="fill:#e1e1e1;fill-opacity:1;fill-rule:nonzero;stroke:none;stroke-width:2.49010706px;stroke-linecap:butt;stroke-linejoin:miter;stroke-miterlimit:4;stroke-dasharray:none"
     inkscape:connector-curvature="0" />
  <path
     id="path4336"
     stroke-miterlimit="4"
     d="m 78.580264,281.92159 c -1.3533,6.45126 -6.35127,10.98016 -12.75637,12.41037 2.36059,-3.82922 4.02145,-6.79722 4.17524,-10.35731 2.35289,-1.26875 5.36705,-2.29142 8.58113,-2.05306 z"
     style="fill:#e1e1e1;fill-opacity:1;fill-rule:nonzero;stroke:none;stroke-width:2.49010706px;stroke-linecap:butt;stroke-linejoin:miter;stroke-miterlimit:4;stroke-dasharray:none"
     inkscape:connector-curvature="0" />
  <path
     id="path4338"
     stroke-miterlimit="4"
     d="M 0.67343031,21.818756 C 5.5560623,21.18363 9.1238473,23.494999 12.883856,25.468042 11.599762,28.252301 9.7159103,30.496005 7.4168453,32.604378 5.9635913,28.211547 3.7029703,24.927493 0.67343031,21.818756 Z"
     style="fill:#e1e1e1;fill-opacity:1;fill-rule:nonzero;stroke:none;stroke-width:2.49010706px;stroke-linecap:butt;stroke-linejoin:miter;stroke-miterlimit:4;stroke-dasharray:none"
     inkscape:connector-curvature="0" />
  <path
     id="path4340"
     stroke-miterlimit="4"
     d="m 37.719926,257.5392 c -5.105616,2.04532 -9.273159,5.70538 -11.956683,10.5957 4.298254,-0.80736 8.68878,-1.53784 12.987031,-1.91461 0.55363,-2.66045 1.19183,-5.52852 -1.030348,-8.68109 z"
     style="fill:#e1e1e1;fill-opacity:1;fill-rule:nonzero;stroke:none;stroke-width:2.49010706px;stroke-linecap:butt;stroke-linejoin:miter;stroke-miterlimit:4;stroke-dasharray:none"
     inkscape:connector-curvature="0" />
  <path
     id="path4342"
     stroke-miterlimit="4"
     d="m 23.179676,148.16053 c -2.868064,-5.08255 -6.366646,-8.08133 -12.133533,-7.71994 2.129905,3.35249 3.982998,5.81303 4.459724,10.00364 2.929583,2.8373 6.958714,-0.30758 7.673809,-2.2837 z"
     style="fill:#e1e1e1;fill-opacity:1;fill-rule:nonzero;stroke:none;stroke-width:2.49010706px;stroke-linecap:butt;stroke-linejoin:miter;stroke-miterlimit:4;stroke-dasharray:none"
     inkscape:connector-curvature="0" />
  <path
     id="path4344"
     stroke-miterlimit="4"
     d="m 58.226984,234.82535 c -4.32901,-4.79036 -9.5269,-6.91258 -15.20921,-6.29745 2.85269,3.51396 6.08215,6.80493 8.43504,10.81869 4.28287,-1.69931 5.09793,-3.06798 6.77417,-4.52124 z"
     style="fill:#e1e1e1;fill-opacity:1;fill-rule:nonzero;stroke:none;stroke-width:2.49010706px;stroke-linecap:butt;stroke-linejoin:miter;stroke-miterlimit:4;stroke-dasharray:none"
     inkscape:connector-curvature="0" />
  <path
     id="path4346"
     stroke-miterlimit="4"
     d="m 99.125764,63.121982 c -7.20477,-7.014837 -20.72235,-6.298204 -26.05865,-13.042391 -1.88385,-2.459769 -2.74504,-4.838803 -3.04492,-7.041759 -1.74544,-12.407269 19.06918,-17.272984 18.45405,-2.838076 -0.16916,2.284457 -1.51477,4.095258 -2.50668,6.068307 5.57467,4.149082 11.26466,8.149763 13.1562,16.853919 z"
     style="fill:#e1e1e1;fill-opacity:1;fill-rule:nonzero;stroke:none;stroke-width:3.13486743px;stroke-linecap:butt;stroke-linejoin:miter;stroke-miterlimit:4;stroke-dasharray:none"
     inkscape:connector-curvature="0" />
  <path
     id="path4350"
     stroke-miterlimit="4"
     d="m 57.073604,12.520224 c 2.1376,3.094895 2.08377,7.987527 0.89195,12.744823 -1.23027,1.770819 -7.92755,-3.405537 -7.01254,-4.473566 2.29907,-2.419015 4.27519,-5.406263 6.12059,-8.271257 z"
     style="fill:#e1e1e1;fill-opacity:1;fill-rule:nonzero;stroke:none;stroke-width:2.49010706px;stroke-linecap:butt;stroke-linejoin:miter;stroke-miterlimit:4;stroke-dasharray:none"
     inkscape:connector-curvature="0" />
  <path
     id="path4352"
     stroke-miterlimit="4"
     d="m 22.925933,5.7082987 c 5.574663,0.635278 9.426945,5.5413633 11.833656,10.7179563 -2.429781,1.662401 -5.536214,2.040709 -9.242399,0.472884 0.17685,-4.662725 -1.4225,-7.3524803 -2.591257,-11.1908403 z"
     style="fill:#e1e1e1;fill-opacity:1;fill-rule:nonzero;stroke:none;stroke-width:2.49010706px;stroke-linecap:butt;stroke-linejoin:miter;stroke-miterlimit:4;stroke-dasharray:none"
     inkscape:connector-curvature="0" />
  <path
     id="path4354"
     stroke-miterlimit="4"
     d="m 7.5398713,54.377079 c -3.660051,-0.148407 -6.94333399,-1.14877 -9.972874,-3.716185 -0.269122,8.514238 6.297443,12.245028 11.787523,11.582218 0.130717,-2.27062 -0.315256,-4.82496 -1.814649,-7.866033 z"
     style="fill:#e1e1e1;fill-opacity:1;fill-rule:nonzero;stroke:none;stroke-width:2.49010706px;stroke-linecap:butt;stroke-linejoin:miter;stroke-miterlimit:4;stroke-dasharray:none"
     inkscape:connector-curvature="0" />
  <path
     id="path4356"
     stroke-miterlimit="4"
     d="m 2.1881973,165.94562 c -5.313225,1.4225 -12.6333283,3.69081 -13.7559523,8.77336 4.9057023,-1.08417 9.4346353,-1.03804 13.7944023,-0.17685 1.114933,-2.4836 0.830431,-5.29785 -0.03848,-8.59651 z"
     style="fill:#e1e1e1;fill-opacity:1;fill-rule:nonzero;stroke:none;stroke-width:2.49010706px;stroke-linecap:butt;stroke-linejoin:miter;stroke-miterlimit:4;stroke-dasharray:none"
     inkscape:connector-curvature="0" />
  <path
     id="path4358"
     stroke-miterlimit="4"
     d="m 3.0570783,202.23858 c -2.08377199,-6.35127 -0.261433,-10.1651 2.145285,-14.64021 1.883846,0.93039 4.052201,2.83731 5.5823467,5.33629 -3.0833627,2.79118 -5.6592397,5.74383 -7.7276317,9.30392 z"
     style="fill:#e1e1e1;fill-opacity:1;fill-rule:nonzero;stroke:none;stroke-width:2.49010706px;stroke-linecap:butt;stroke-linejoin:miter;stroke-miterlimit:4;stroke-dasharray:none"
     inkscape:connector-curvature="0" />
  <path
     id="path4360"
     stroke-miterlimit="4"
     d="m 39.380784,193.31912 c -1.23795,3.22946 -3.467817,7.76608 -13.486825,9.673 2.014569,-2.69121 3.506272,-5.20558 4.006068,-8.15054 3.198699,-1.18413 7.24321,-1.83771 9.480757,-1.52246 z"
     style="fill:#e1e1e1;fill-opacity:1;fill-rule:nonzero;stroke:none;stroke-width:2.49010706px;stroke-linecap:butt;stroke-linejoin:miter;stroke-miterlimit:4;stroke-dasharray:none"
     inkscape:connector-curvature="0" />
  <path
     id="path4362"
     stroke-miterlimit="4"
     d="m 172.91888,280.68367 c -4.74423,4.3751 -10.25738,8.98096 -9.77296,15.50906 3.81384,-4.18289 8.54269,-5.60543 13.30998,-6.3743 -0.14609,-4.01377 -1.52245,-6.63581 -3.53702,-9.13476 z"
     style="fill:#e1e1e1;fill-opacity:1;fill-rule:nonzero;stroke:none;stroke-width:2.49010706px;stroke-linecap:butt;stroke-linejoin:miter;stroke-miterlimit:4;stroke-dasharray:none"
     inkscape:connector-curvature="0" />
</svg>
