<svg width="514" height="206" xmlns="http://www.w3.org/2000/svg">

 <g>
  <title>background</title>
  <rect fill="none" id="canvas_background" height="208" width="516" y="-1" x="-1"/>
 </g>
 <g>
  <title>Layer 1</title>
  <path id="svg_2" fill-rule="evenodd" clip-rule="evenodd" fill="#ffffff" d="m326.980303,73.113174c-14.067,-0.185 -19.343,12.533 -19.343,26.246c0,12.396 4.642,26.771 19.343,26.771c15.338,-0.17 19.123,-15.543 19.123,-26.771c0,-14.206 -6.272,-26.073 -19.123,-26.246zm86.7,-1.989c-12.077,0 -19.335,7.437 -21.958,19.163l42.252,0c-1.305,-11.048 -9.56,-19.163 -20.294,-19.163zm77.608,-6.832c0,-13.992 -11.307,-25.293 -25.29,-25.293c-7.229,0 -13.714,3.014 -18.313,7.867c-10.7,-7.437 -23.662,-11.793 -37.69,-11.793c-14.166,0 -27.231,4.458 -38.005,12.04c-4.85,-4.498 -11.294,-7.229 -18.413,-7.229c-5.28,0 -10.206,1.528 -14.38,4.145c-9.884,-17.635 -28.726,-29.539 -50.367,-29.539c-19.797,0 -37.229,9.922 -47.672,25.042c-8.714,-8.954 -20.899,-14.52 -34.393,-14.52c-8.926,0 -17.247,2.445 -24.405,6.69c-0.172,-17.035 -13.992,-30.776 -31.061,-30.776c-17.18,0 -31.096,13.921 -31.096,31.062l0.072,1.206c-3.33,-0.495 -6.73,-0.779 -10.202,-0.779c-10.129,0 -19.693,2.229 -28.3,6.197c-4.85,-2.585 -10.343,-4.076 -16.223,-4.076c-18.876,0 -34.248,15.338 -34.248,34.255c0,10.022 4.357,18.981 11.194,25.254c-0.179,2.055 -0.286,4.145 -0.286,6.232c0,37.475 30.391,67.826 67.864,67.826c14.554,0 28.053,-4.604 39.097,-12.397c9.956,13.606 26.004,22.493 44.136,22.493c0.459,0 0.886,-0.034 1.308,-0.075c5.244,14.843 19.306,25.471 35.915,25.471c16.794,0 31.063,-10.908 36.09,-26.034c5.778,10.945 17.213,18.384 30.423,18.384c16.508,0 30.288,-11.652 33.616,-27.165c2.374,0.314 4.813,0.533 7.261,0.533c13.463,0 25.683,-5.109 34.989,-13.429c10.562,7.189 23.345,11.407 37.086,11.407c36.522,0 66.095,-29.614 66.095,-66.129c0,-4.501 -0.427,-8.926 -1.312,-13.176c9.631,-3.58 16.51,-12.82 16.51,-23.694zm-45.09,39.842l-54.477,0c0,12.716 8.251,21.995 22.276,21.995c18.172,0 18.172,-11.898 27.911,-11.898c5.776,0 9.917,4.959 9.917,9.419c0,14.521 -23.302,21.284 -37.828,21.284c-27.409,0 -40.943,-15.085 -45.013,-32.015c-3.647,17.749 -15.273,32.015 -35.92,32.015c-11.049,0 -19.296,-4.457 -23.76,-12.213l-0.354,0l0,32.199c0,7.93 -4.787,12.072 -12.044,12.072c-7.268,0 -12.044,-4.143 -12.044,-12.072l0,-89.825l-27.098,76.789c-5.767,16.502 -12.397,25.108 -27.59,25.108c-10.729,0 -15.196,-5.276 -15.196,-11.086c0,-6.451 4.642,-9.743 11.091,-9.743l2.476,0c3.118,0 6.586,-0.137 8.398,-7.579l-25.08,-71.507c-0.884,-2.587 -1.557,-4.532 -2.049,-6.165c-0.57,0.745 -1.204,1.416 -1.956,2.2l-17.812,18.664l25.114,33.684c0.813,1.13 2.476,3.791 2.476,7.753c0,6.13 -4.956,11.721 -11.401,11.721c-5.951,0 -9.105,-2.968 -10.909,-5.591l-22.779,-32.233l-8.427,7.438l0,18.347c0,7.903 -4.783,12.039 -12.044,12.039c-7.296,0 -12.079,-4.136 -12.079,-12.039l0,-8.89c-4.317,14.238 -20.434,20.929 -35.983,20.929c-21.783,0 -39.95,-9.737 -39.95,-21.636c0,-5.276 2.973,-10.058 9.738,-10.058c10.411,0 11.407,14.873 29.22,14.873c8.573,0 14.027,-3.825 14.027,-8.746c0,-6.127 -5.28,-7.117 -13.848,-9.279l-14.203,-3.439c-14.026,-3.465 -24.935,-9.278 -24.935,-25.467c0,-19.616 19.48,-26.913 36.158,-26.913c18.31,0 36.835,7.297 36.835,18.345c0,5.628 -3.824,10.557 -10.091,10.557c-9.423,0 -9.743,-11.054 -24.936,-11.054c-8.427,0 -13.883,2.302 -13.883,7.437c0,5.6 5.456,6.943 12.892,8.578l10.057,2.334c11.586,2.621 25.009,7.19 28.9,18.667l0,-75.334c0,-7.898 4.783,-12.041 12.079,-12.041c7.261,0 12.044,4.143 12.044,12.041l0,54.821l26.74,-29.713c2.481,-2.655 5.633,-4.638 9.245,-4.638c3.931,0 8.108,2.549 10.13,6.232c1.948,-3.757 5.845,-6.232 10.377,-6.232c6.444,0 10.908,3.646 12.358,9.1l15.549,56.316l0.321,0l14.703,-54.648c1.663,-6.13 4.955,-10.768 11.579,-10.768c5.702,0 8.995,2.829 10.735,5.735c1.445,-3.719 4.672,-5.735 9.877,-5.735c7.119,0 10.908,3.997 10.908,11.401l0,3.791l0.354,0c3.973,-10.23 13.709,-15.192 25.396,-15.192c17.212,0 32.584,10.803 36.734,33.363c4.67,-20.399 20.361,-33.363 44.06,-33.363c27.733,0 43.599,19.656 43.599,39.49c0.004,8.253 -2.477,10.375 -10.585,10.375zm16.324,-45.335l-4.53,0l0,12.399l-3.366,0l0,-12.399l-4.535,0l0,-2.796l12.432,0l0,2.796l-0.001,0zm18.097,12.399l-3.113,0c0,0 -0.036,0 -0.036,-10.769l-3.723,10.769l-2.585,0c0,0 -0.036,0 -3.752,-10.663l0,10.663l-3.154,0l0,-15.195l4.715,0c0,0 0.036,0 3.612,10.446l3.365,-10.446l4.671,0l0,15.195z"/>
 </g>
</svg>