# Blender v2.78 (sub 0) OBJ File: ''
# www.blender.org
mtllib Logo_curved.mtl
o Outline
v 4.625266 5.634273 -0.254057
v 3.572584 6.651033 -0.797548
v 4.559661 5.571990 -0.902106
v 0.656186 6.651033 -0.254057
v 0.635618 -1.187752 -0.797554
v 0.656186 6.651033 -0.724388
v 1.040043 -0.252922 -0.331553
v 1.027347 0.941736 -0.849032
v 1.134040 -0.279317 -0.797554
v 0.381803 -1.093397 -1.051616
v 0.000000 6.651033 -1.051610
v 0.402834 6.921970 -0.944737
v 0.000000 7.701767 -1.204071
v 0.721049 7.701767 -1.051610
v 3.572584 6.651033 -0.254057
v 0.402806 6.911088 -0.073619
v 0.000000 7.701767 0.157785
v 0.000000 6.651033 0.000005
v 0.635618 -1.187753 -0.254062
v 0.000000 -1.928431 -0.797555
v 1.246115 1.449622 -0.254061
v 1.094384 0.998020 -0.254061
v 1.342685 1.187495 0.000000
v 1.379968 -0.270116 -0.310462
v 1.375638 0.126079 0.000000
v 1.450823 -0.339381 -0.749506
v 1.375638 0.126080 -1.051616
v 1.270907 1.611660 -0.706670
v 1.343163 1.172113 -1.051615
v 4.968503 5.661637 -1.051611
v 3.663642 6.921970 -1.051610
v 0.742428 8.011645 -0.181389
v 3.951405 7.754185 0.154936
v 4.016937 8.009809 -0.255709
v 4.012247 7.959228 -0.797548
v 6.143040 5.755278 -1.051611
v 3.919089 7.637726 -1.040137
v 3.659984 6.911088 0.000005
v 0.381803 -1.093398 -0.000000
v 6.150826 5.751698 0.004766
v 0.000000 -1.538308 -1.051616
v 0.000000 -1.567167 0.114255
v 0.000000 -1.928431 -0.254062
v 0.000000 8.067644 -0.797548
v 4.963284 5.644730 0.029639
v 0.000000 7.959228 -0.086742
v 0.721049 7.701767 0.100206
v 0.748263 8.073850 -0.810673
v 6.491230 5.783037 -0.797549
v 6.367007 5.775226 -0.294271
v -4.625266 5.634273 -0.254057
v -4.559661 5.571990 -0.902106
v -3.572584 6.651033 -0.797548
v -0.656186 6.651033 -0.254057
v -0.656186 6.651033 -0.724388
v -0.635618 -1.187752 -0.797554
v -1.040043 -0.252922 -0.331553
v -1.134040 -0.279317 -0.797554
v -1.027347 0.941736 -0.849032
v -0.381803 -1.093397 -1.051616
v -0.402834 6.921970 -0.944737
v -0.721049 7.701767 -1.051610
v -3.572584 6.651033 -0.254057
v -0.402806 6.911088 -0.073619
v -0.635618 -1.187753 -0.254062
v -1.246115 1.449622 -0.254061
v -1.342685 1.187495 0.000000
v -1.094384 0.998020 -0.254061
v -1.379968 -0.270116 -0.310462
v -1.375638 0.126079 0.000000
v -1.450823 -0.339381 -0.749506
v -1.375638 0.126080 -1.051616
v -1.270907 1.611660 -0.706670
v -1.343163 1.172113 -1.051615
v -4.968503 5.661637 -1.051611
v -3.663642 6.921970 -1.051610
v -0.742428 8.011645 -0.181389
v -4.016937 8.009809 -0.255709
v -3.951405 7.754185 0.154936
v -4.012247 7.959228 -0.797548
v -3.919089 7.637726 -1.040137
v -6.143040 5.755278 -1.051611
v -3.659984 6.911088 0.000005
v -0.381803 -1.093398 -0.000000
v -6.150826 5.751698 0.004766
v -4.963284 5.644730 0.029639
v -0.721049 7.701767 0.127904
v -0.748263 8.073850 -0.810673
v -6.491230 5.783037 -0.797549
v -6.367007 5.775226 -0.294271
vn -0.7241 -0.6757 0.1382
vn 1.0000 -0.0026 -0.0000
vn -0.9770 -0.0935 -0.1918
vn 0.2487 0.0123 -0.9685
vn 0.2021 -0.2135 -0.9558
vn 0.0000 -1.0000 0.0000
vn 0.2666 -0.1431 0.9531
vn 0.7589 -0.6512 -0.0000
vn -0.7806 0.2623 0.5673
vn -0.0798 -0.6154 0.7842
vn 0.0248 -0.5414 -0.8404
vn -0.6797 0.3804 -0.6271
vn -0.3859 0.3116 -0.8683
vn -0.2739 -0.2836 -0.9190
vn -0.0533 -0.9975 0.0458
vn 0.0125 0.8480 0.5299
vn 0.3988 0.4759 -0.7839
vn -0.6475 -0.0885 -0.7569
vn -0.0184 -0.6806 -0.7324
vn -0.4974 -0.5149 0.6982
vn 0.6612 0.0083 -0.7501
vn 0.5841 0.0059 0.8117
vn 0.6056 0.6286 0.4879
vn 0.5366 -0.4605 -0.7071
vn 0.6395 -0.5488 0.5383
vn 0.0000 -0.6988 0.7153
vn 0.1401 0.7360 -0.6624
vn -0.9461 0.3179 0.0620
vn -0.7068 -0.0219 0.7071
vn -0.5776 0.4647 0.6711
vn 0.0471 0.6700 0.7409
vn 0.0242 0.5977 -0.8014
vn 0.5463 -0.4627 -0.6982
vn 0.6817 -0.5790 0.4473
vn -0.6947 -0.7193 0.0000
vn -0.9934 0.0364 0.1085
vn 0.0000 0.0000 -1.0000
vn 0.3380 -0.1351 -0.9314
vn 0.0772 -0.2436 0.9668
vn -0.5757 0.4442 -0.6865
vn -0.5682 -0.4532 -0.6869
vn -0.2026 -0.9718 0.1206
vn -0.0234 0.6732 0.7391
vn 0.4697 0.5351 -0.7022
vn -0.5313 -0.0165 -0.8470
vn -0.0250 -0.6447 -0.7640
vn -0.5338 -0.5340 0.6557
vn 0.7083 0.0047 -0.7059
vn 0.7071 -0.0019 0.7071
vn 0.6055 0.6287 0.4880
vn 0.6059 0.6288 0.4875
vn 0.6099 -0.3162 0.7267
vn -0.0184 -0.5820 0.8130
vn -0.0192 0.5444 -0.8386
vn -0.9422 0.3265 0.0753
vn -0.6945 -0.0144 0.7194
vn -0.5658 0.4569 0.6864
vn 0.0578 0.6875 0.7239
vn 0.0139 0.5428 -0.8398
vn 0.4965 -0.4147 -0.7625
vn 0.5943 -0.4920 0.6362
vn 0.7241 -0.6757 0.1382
vn -1.0000 -0.0026 -0.0000
vn 0.9770 -0.0935 -0.1918
vn -0.2487 0.0123 -0.9685
vn -0.2021 -0.2135 -0.9558
vn -0.2666 -0.1431 0.9531
vn -0.7589 -0.6512 -0.0000
vn 0.7806 0.2623 0.5673
vn 0.0798 -0.6154 0.7842
vn -0.0248 -0.5414 -0.8404
vn 0.6797 0.3804 -0.6271
vn 0.3859 0.3116 -0.8683
vn 0.2739 -0.2836 -0.9190
vn 0.0533 -0.9975 0.0458
vn -0.0125 0.8480 0.5299
vn -0.3988 0.4759 -0.7839
vn 0.6475 -0.0885 -0.7569
vn 0.0184 -0.6806 -0.7324
vn 0.4974 -0.5149 0.6982
vn -0.6612 0.0083 -0.7501
vn -0.5841 0.0059 0.8117
vn -0.6058 0.6287 0.4875
vn -0.6056 0.6286 0.4879
vn -0.5366 -0.4605 -0.7071
vn -0.6395 -0.5488 0.5383
vn -0.1401 0.7360 -0.6624
vn 0.9461 0.3179 0.0620
vn 0.7068 -0.0219 0.7071
vn 0.5776 0.4647 0.6711
vn -0.0406 0.7045 0.7086
vn -0.0242 0.5977 -0.8014
vn -0.5463 -0.4627 -0.6982
vn -0.6817 -0.5790 0.4473
vn 0.6947 -0.7193 0.0000
vn 0.9934 0.0364 0.1085
vn -0.3380 -0.1351 -0.9314
vn -0.0400 -0.2619 0.9643
vn 0.5757 0.4442 -0.6865
vn 0.5682 -0.4532 -0.6869
vn 0.2026 -0.9718 0.1206
vn 0.0174 0.7069 0.7071
vn -0.4697 0.5351 -0.7022
vn 0.5313 -0.0165 -0.8470
vn 0.0250 -0.6447 -0.7640
vn 0.5338 -0.5340 0.6557
vn -0.7083 0.0047 -0.7059
vn -0.7071 -0.0019 0.7071
vn -0.6059 0.6288 0.4875
vn -0.6099 -0.3162 0.7267
vn 0.0184 -0.5820 0.8130
vn 0.0192 0.5444 -0.8386
vn 0.9422 0.3265 0.0753
vn 0.6945 -0.0144 0.7194
vn 0.5658 0.4569 0.6864
vn -0.0300 0.6883 0.7248
vn -0.0139 0.5428 -0.8398
vn -0.4965 -0.4147 -0.7625
vn -0.5943 -0.4920 0.6362
usemtl None.002
s 1
f 1//1 2//1 3//1
f 4//2 5//2 6//2
f 7//3 8//3 9//3
f 10//4 11//4 12//4
f 12//5 13//5 14//5
f 4//6 2//6 15//6
f 16//7 17//7 18//7
f 19//8 20//8 5//8
f 21//9 22//9 23//9
f 24//10 25//10 7//10
f 26//11 9//11 27//11
f 28//12 29//12 8//12
f 29//13 3//13 30//13
f 3//14 31//14 30//14
f 9//15 24//15 7//15
f 32//16 33//16 34//16
f 35//17 36//17 37//17
f 8//18 27//18 9//18
f 6//19 31//19 2//19
f 1//20 38//20 15//20
f 6//21 10//21 12//21
f 39//22 4//22 16//22
f 40//23 34//23 33//23
f 5//24 41//24 10//24
f 19//25 42//25 43//25
f 38//26 4//26 15//26
f 44//27 14//27 13//27
f 28//28 22//28 21//28
f 22//29 25//29 23//29
f 1//30 23//30 45//30
f 46//31 47//31 32//31
f 37//32 48//32 35//32
f 49//33 27//33 36//33
f 25//34 50//34 40//34
f 1//35 15//35 2//35
f 4//2 19//2 5//2
f 7//36 22//36 8//36
f 10//37 41//37 11//37
f 12//38 11//38 13//38
f 4//6 6//6 2//6
f 16//39 47//39 17//39
f 19//8 43//8 20//8
f 29//40 28//40 3//40
f 3//41 2//41 31//41
f 9//42 26//42 24//42
f 32//43 47//43 33//43
f 35//44 49//44 36//44
f 8//45 29//45 27//45
f 6//46 12//46 31//46
f 1//47 45//47 38//47
f 6//48 5//48 10//48
f 39//49 19//49 4//49
f 40//50 50//51 34//51
f 5//24 20//24 41//24
f 19//52 39//52 42//52
f 38//53 16//53 4//53
f 44//54 48//54 14//54
f 28//55 8//55 22//55
f 22//56 7//56 25//56
f 1//57 21//57 23//57
f 46//58 17//58 47//58
f 37//59 14//59 48//59
f 49//60 26//60 27//60
f 25//61 24//61 50//61
f 51//62 52//62 53//62
f 54//63 55//63 56//63
f 57//64 58//64 59//64
f 60//65 61//65 11//65
f 61//66 62//66 13//66
f 54//6 63//6 53//6
f 64//67 18//67 17//67
f 65//68 56//68 20//68
f 66//69 67//69 68//69
f 69//70 57//70 70//70
f 71//71 72//71 58//71
f 73//72 59//72 74//72
f 74//73 75//73 52//73
f 52//74 75//74 76//74
f 58//75 57//75 69//75
f 77//76 78//76 79//76
f 80//77 81//77 82//77
f 59//78 58//78 72//78
f 55//79 53//79 76//79
f 51//80 63//80 83//80
f 55//81 61//81 60//81
f 84//82 64//82 54//82
f 85//83 79//84 78//84
f 56//85 60//85 41//85
f 65//86 43//86 42//86
f 83//26 63//26 54//26
f 44//87 13//87 62//87
f 73//88 66//88 68//88
f 68//89 67//89 70//89
f 51//90 86//90 67//90
f 46//91 77//91 87//91
f 81//92 80//92 88//92
f 89//93 82//93 72//93
f 70//94 85//94 90//94
f 51//95 53//95 63//95
f 54//63 56//63 65//63
f 57//96 59//96 68//96
f 60//37 11//37 41//37
f 61//97 13//97 11//97
f 54//6 53//6 55//6
f 64//98 17//98 87//98
f 65//68 20//68 43//68
f 74//99 52//99 73//99
f 52//100 76//100 53//100
f 58//101 69//101 71//101
f 77//102 79//102 87//102
f 80//103 82//103 89//103
f 59//104 72//104 74//104
f 55//105 76//105 61//105
f 51//106 83//106 86//106
f 55//107 60//107 56//107
f 84//108 54//108 65//108
f 85//83 78//84 90//109
f 56//85 41//85 20//85
f 65//110 42//110 84//110
f 83//111 54//111 64//111
f 44//112 62//112 88//112
f 73//113 68//113 59//113
f 68//114 70//114 57//114
f 51//115 67//115 66//115
f 46//116 87//116 17//116
f 81//117 88//117 62//117
f 89//118 72//118 71//118
f 70//119 90//119 69//119
o Main
v 4.625266 5.634273 -0.254055
v 3.572584 6.651033 -0.797546
v 4.559661 5.571990 -0.902104
v 0.656186 6.651033 -0.254055
v 0.635618 -1.187752 -0.797554
v 0.656186 6.651033 -0.724386
v 6.367007 5.775226 -0.294269
v 4.012247 7.959228 -0.797546
v 4.016937 8.009809 -0.255707
v 0.742428 8.011645 -0.181387
v 0.000000 8.067644 -0.797546
v 0.000000 7.959228 -0.086740
v 1.270907 1.611660 -0.706670
v 1.246115 1.449622 -0.254061
v 1.040043 -0.252922 -0.331553
v 1.027347 0.941736 -0.849032
v 1.134040 -0.279317 -0.797554
v 3.663642 6.921970 -1.051608
v 0.721049 7.701767 -1.051608
v 3.919089 7.637726 -1.040135
v 0.381803 -1.093397 -1.051616
v 0.000000 6.651033 -1.051608
v 0.402834 6.921970 -0.944735
v 1.375638 0.126080 -1.051616
v 4.968503 5.661637 -1.051609
v 6.143040 5.755278 -1.051609
v 0.000000 7.701767 -1.204069
v 3.572584 6.651033 -0.254055
v 0.748263 8.073850 -0.810671
v 4.963284 5.644730 0.029641
v 1.375638 0.126079 0.000000
v 6.150826 5.751698 0.004768
v 3.951405 7.754185 0.154938
v 0.000000 6.651033 0.000007
v 0.381803 -1.093398 -0.000000
v 0.402806 6.911088 -0.073617
v 0.000000 7.701767 0.157787
v 1.379968 -0.270116 -0.310462
v 6.491230 5.783037 -0.797547
v 0.635618 -1.187753 -0.254062
v 0.000000 -1.928431 -0.797555
v 1.094384 0.998020 -0.254061
v 1.342685 1.187495 0.000000
v 1.450823 -0.339381 -0.749506
v 1.343163 1.172113 -1.051615
v 3.659984 6.911088 0.000007
v 0.000000 -1.538308 -1.051616
v 0.000000 -1.567167 0.114255
v 0.000000 -1.928431 -0.254062
v 0.721049 7.701767 0.100208
v -4.625266 5.634273 -0.254055
v -4.559661 5.571990 -0.902104
v -3.572584 6.651033 -0.797546
v -0.656186 6.651033 -0.254055
v -0.656186 6.651033 -0.724386
v -0.635618 -1.187752 -0.797554
v -6.367007 5.775226 -0.294269
v -4.016937 8.009809 -0.255707
v -4.012247 7.959228 -0.797546
v -0.742428 8.011645 -0.181387
v -1.246115 1.449622 -0.254061
v -1.270907 1.611660 -0.706670
v -1.040043 -0.252922 -0.331553
v -1.134040 -0.279317 -0.797554
v -1.027347 0.941736 -0.849032
v -3.663642 6.921970 -1.051608
v -3.919089 7.637726 -1.040135
v -0.721049 7.701767 -1.051608
v -0.381803 -1.093397 -1.051616
v -0.402834 6.921970 -0.944735
v -1.375638 0.126080 -1.051616
v -6.143040 5.755278 -1.051609
v -4.968503 5.661637 -1.051609
v -3.572584 6.651033 -0.254055
v -0.748263 8.073850 -0.810671
v -4.963284 5.644730 0.029641
v -6.150826 5.751698 0.004768
v -1.375638 0.126079 0.000000
v -3.951405 7.754185 0.154938
v -0.402806 6.911088 -0.073617
v -0.381803 -1.093398 -0.000000
v -1.379968 -0.270116 -0.310462
v -6.491230 5.783037 -0.797547
v -0.635618 -1.187753 -0.254062
v -1.342685 1.187495 0.000000
v -1.094384 0.998020 -0.254061
v -1.450823 -0.339381 -0.749506
v -1.343163 1.172113 -1.051615
v -3.659984 6.911088 0.000007
v -0.721049 7.701767 0.127906
vn -0.7241 -0.6757 0.1382
vn 1.0000 -0.0026 -0.0000
vn 0.6866 0.7233 -0.0735
vn -0.0505 0.9873 0.1506
vn -0.7654 0.6181 0.1793
vn -0.9770 -0.0935 -0.1918
vn 0.0042 0.0142 -0.9999
vn 0.0039 0.0146 -0.9999
vn 0.0030 0.0065 -1.0000
vn 0.2487 0.0123 -0.9685
vn -0.0000 0.0000 -1.0000
vn 0.0072 0.0068 -1.0000
vn -0.0002 0.0028 -1.0000
vn 0.2021 -0.2135 -0.9558
vn 0.0000 -1.0000 0.0000
vn 0.0028 0.9951 0.0984
vn 0.0026 0.9951 0.0984
vn -0.0054 0.9951 0.0983
vn 0.0228 -0.0202 0.9995
vn 0.0252 -0.0472 0.9986
vn 0.1744 0.0086 0.9846
vn 0.2666 -0.1431 0.9531
vn 0.7589 -0.6265 0.1776
vn 0.7589 -0.6512 -0.0000
vn -0.7806 0.2623 0.5673
vn -0.0798 -0.6154 0.7842
vn 0.0248 -0.5414 -0.8404
vn -0.6797 0.3804 -0.6271
vn -0.3859 0.3116 -0.8683
vn -0.2739 -0.2836 -0.9190
vn -0.0533 -0.9975 0.0458
vn 0.0125 0.8480 0.5299
vn 0.3988 0.4759 -0.7839
vn -0.6475 -0.0885 -0.7569
vn -0.0184 -0.6806 -0.7324
vn -0.4974 -0.5149 0.6982
vn 0.6612 0.0083 -0.7501
vn 0.5841 0.0059 0.8117
vn 0.6058 0.6287 0.4875
vn 0.6056 0.6286 0.4879
vn 0.5366 -0.4605 -0.7071
vn 0.6395 -0.5488 0.5383
vn 0.0000 -0.6988 0.7153
vn 0.1401 0.7360 -0.6624
vn -0.9461 0.3179 0.0620
vn -0.7068 -0.0219 0.7071
vn -0.5776 0.4647 0.6711
vn 0.0471 0.6700 0.7409
vn 0.0242 0.5977 -0.8014
vn 0.5463 -0.4627 -0.6982
vn 0.6817 -0.5790 0.4473
vn -0.0221 -0.2062 0.9783
vn -0.6947 -0.7193 0.0000
vn 0.6499 0.7403 0.1719
vn -0.0065 0.9951 0.0983
vn -0.7688 0.6393 0.0164
vn -0.9934 0.0364 0.1085
vn -0.0325 -0.1227 -0.9919
vn 0.3380 -0.1351 -0.9314
vn 0.0353 0.9950 -0.0932
vn -0.0079 -0.0002 1.0000
vn -0.1478 -0.1291 0.9806
vn 0.2714 0.0134 0.9624
vn 0.0772 -0.2436 0.9668
vn 0.7541 -0.6191 0.2194
vn -0.5757 0.4442 -0.6865
vn -0.5682 -0.4532 -0.6869
vn -0.2026 -0.9718 0.1206
vn -0.0234 0.6732 0.7391
vn 0.4697 0.5351 -0.7022
vn -0.5313 -0.0165 -0.8470
vn -0.0250 -0.6447 -0.7640
vn -0.5338 -0.5340 0.6557
vn 0.7083 0.0047 -0.7059
vn 0.7071 -0.0019 0.7071
vn 0.6059 0.6288 0.4875
vn 0.6099 -0.3162 0.7267
vn -0.0184 -0.5820 0.8130
vn -0.0192 0.5444 -0.8386
vn -0.9422 0.3265 0.0753
vn -0.6945 -0.0144 0.7194
vn -0.5658 0.4569 0.6864
vn 0.0578 0.6875 0.7239
vn 0.0139 0.5428 -0.8398
vn 0.4965 -0.4147 -0.7625
vn 0.5943 -0.4920 0.6362
vn -0.0138 -0.1761 0.9843
vn 0.7241 -0.6757 0.1382
vn -1.0000 -0.0026 -0.0000
vn -0.6866 0.7233 -0.0735
vn 0.0505 0.9873 0.1506
vn 0.7654 0.6181 0.1793
vn 0.9770 -0.0935 -0.1918
vn -0.0042 0.0142 -0.9999
vn -0.0030 0.0065 -1.0000
vn -0.0039 0.0146 -0.9999
vn -0.2487 0.0123 -0.9685
vn 0.0002 0.0028 -1.0000
vn -0.0076 0.0069 -0.9999
vn -0.2021 -0.2135 -0.9558
vn -0.0028 0.9951 0.0984
vn 0.0054 0.9951 0.0983
vn -0.0026 0.9951 0.0984
vn -0.0228 -0.0202 0.9995
vn -0.0252 -0.0472 0.9986
vn -0.1744 0.0086 0.9846
vn -0.2666 -0.1431 0.9531
vn -0.7589 -0.6265 0.1776
vn -0.7589 -0.6512 -0.0000
vn 0.7806 0.2623 0.5673
vn 0.0798 -0.6154 0.7842
vn -0.0248 -0.5414 -0.8404
vn 0.6797 0.3804 -0.6271
vn 0.3859 0.3116 -0.8683
vn 0.2739 -0.2836 -0.9190
vn 0.0533 -0.9975 0.0458
vn -0.0125 0.8480 0.5299
vn -0.3988 0.4759 -0.7839
vn 0.6475 -0.0885 -0.7569
vn 0.0184 -0.6806 -0.7324
vn 0.4974 -0.5149 0.6982
vn -0.6612 0.0083 -0.7501
vn -0.5841 0.0059 0.8117
vn -0.6058 0.6287 0.4875
vn -0.6056 0.6286 0.4879
vn -0.5366 -0.4605 -0.7071
vn -0.6395 -0.5488 0.5383
vn -0.1401 0.7360 -0.6624
vn 0.9461 0.3179 0.0620
vn 0.7068 -0.0219 0.7071
vn 0.5776 0.4647 0.6711
vn -0.0406 0.7045 0.7086
vn -0.0242 0.5977 -0.8014
vn -0.5463 -0.4627 -0.6982
vn -0.6817 -0.5790 0.4473
vn 0.0219 -0.2386 0.9709
vn 0.6947 -0.7193 0.0000
vn -0.6499 0.7403 0.1719
vn 0.0065 0.9951 0.0983
vn 0.7688 0.6393 0.0164
vn 0.9934 0.0364 0.1085
vn 0.0325 -0.1227 -0.9919
vn -0.3380 -0.1351 -0.9314
vn -0.0353 0.9950 -0.0932
vn 0.0079 -0.0002 1.0000
vn 0.1478 -0.1291 0.9806
vn -0.2714 0.0134 0.9624
vn -0.0400 -0.2619 0.9643
vn -0.7541 -0.6191 0.2194
vn 0.5757 0.4442 -0.6865
vn 0.5682 -0.4532 -0.6869
vn 0.2026 -0.9718 0.1206
vn 0.0174 0.7069 0.7071
vn -0.4697 0.5351 -0.7022
vn 0.5313 -0.0165 -0.8470
vn 0.0250 -0.6447 -0.7640
vn 0.5338 -0.5340 0.6557
vn -0.7083 0.0047 -0.7059
vn -0.7071 -0.0019 0.7071
vn -0.6059 0.6288 0.4875
vn -0.6099 -0.3162 0.7267
vn 0.0184 -0.5820 0.8130
vn 0.0192 0.5444 -0.8386
vn 0.9422 0.3265 0.0753
vn 0.6945 -0.0144 0.7194
vn 0.5658 0.4569 0.6864
vn -0.0300 0.6883 0.7248
vn -0.0139 0.5428 -0.8398
vn -0.4965 -0.4147 -0.7625
vn -0.5943 -0.4920 0.6362
vn 0.0053 -0.1790 0.9838
usemtl None.004
s 1
f 91//120 92//120 93//120
f 94//121 95//121 96//121
f 97//122 98//122 99//122
f 100//123 101//123 102//123
f 91//124 103//124 104//124
f 105//125 106//125 107//125
f 108//126 109//127 110//128
f 111//129 112//129 113//129
f 114//130 115//131 116//132
f 113//133 117//133 109//133
f 94//134 92//134 118//134
f 99//135 119//136 100//137
f 120//138 121//138 122//138
f 123//139 120//139 122//139
f 124//140 125//140 126//140
f 126//141 127//141 124//141
f 128//142 129//142 97//142
f 130//143 131//143 95//143
f 110//128 115//131 108//126
f 104//144 132//144 133//144
f 128//145 121//145 105//145
f 134//146 107//146 114//146
f 103//147 135//147 106//147
f 135//148 93//148 115//148
f 93//149 108//149 115//149
f 107//150 128//150 105//150
f 100//151 123//151 99//151
f 98//152 116//152 110//152
f 106//153 114//153 107//153
f 96//154 108//154 92//154
f 91//155 136//155 118//155
f 96//156 111//156 113//156
f 125//157 94//157 126//157
f 122//158 99//159 123//159
f 95//160 137//160 111//160
f 130//161 138//161 139//161
f 136//162 94//162 118//162
f 101//163 109//163 117//163
f 103//164 132//164 104//164
f 132//165 121//165 133//165
f 91//166 133//166 120//166
f 102//167 140//167 100//167
f 110//168 119//168 98//168
f 129//169 114//169 116//169
f 121//170 97//170 122//170
f 136//171 140//171 126//171
f 91//172 118//172 92//172
f 94//121 130//121 95//121
f 97//173 129//173 98//173
f 100//137 119//136 101//174
f 91//175 93//175 103//175
f 105//176 132//176 106//176
f 108//177 113//177 109//177
f 111//130 137//130 112//130
f 114//130 135//130 115//131
f 113//178 112//178 117//178
f 94//134 96//134 92//134
f 99//179 98//179 119//179
f 120//180 133//180 121//180
f 123//181 136//181 120//181
f 124//182 138//182 125//182
f 126//183 140//183 127//183
f 128//184 134//184 129//184
f 130//143 139//143 131//143
f 110//128 116//132 115//131
f 135//185 103//185 93//185
f 93//186 92//186 108//186
f 107//187 134//187 128//187
f 100//188 140//188 123//188
f 98//189 129//189 116//189
f 106//190 135//190 114//190
f 96//191 113//191 108//191
f 91//192 120//192 136//192
f 96//193 95//193 111//193
f 125//194 130//194 94//194
f 122//158 97//195 99//159
f 95//160 131//160 137//160
f 130//196 125//196 138//196
f 136//197 126//197 94//197
f 101//198 119//198 109//198
f 103//199 106//199 132//199
f 132//200 105//200 121//200
f 91//201 104//201 133//201
f 102//202 127//202 140//202
f 110//203 109//203 119//203
f 129//204 134//204 114//204
f 121//205 128//205 97//205
f 136//206 123//206 140//206
f 141//207 142//207 143//207
f 144//208 145//208 146//208
f 147//209 148//209 149//209
f 150//210 102//210 101//210
f 141//211 151//211 152//211
f 153//212 154//212 155//212
f 156//213 157//214 158//215
f 159//216 160//216 112//216
f 161//130 162//217 163//218
f 160//219 158//219 117//219
f 144//134 164//134 143//134
f 148//220 150//221 165//222
f 166//223 167//223 168//223
f 169//224 167//224 166//224
f 124//225 170//225 171//225
f 170//226 124//226 127//226
f 172//227 147//227 173//227
f 174//228 146//228 131//228
f 157//214 156//213 163//218
f 151//229 175//229 176//229
f 172//230 153//230 168//230
f 177//231 161//231 154//231
f 152//232 155//232 178//232
f 178//233 163//233 142//233
f 142//234 163//234 156//234
f 154//235 153//235 172//235
f 150//236 148//236 169//236
f 149//237 157//237 162//237
f 155//238 154//238 161//238
f 145//239 143//239 156//239
f 141//240 164//240 179//240
f 145//241 160//241 159//241
f 171//242 170//242 144//242
f 167//243 169//244 148//244
f 146//245 159//245 137//245
f 174//246 139//246 138//246
f 179//162 164//162 144//162
f 101//247 117//247 158//247
f 152//248 151//248 176//248
f 176//249 175//249 168//249
f 141//250 166//250 175//250
f 102//251 150//251 180//251
f 157//252 149//252 165//252
f 173//253 162//253 161//253
f 168//254 167//254 147//254
f 179//255 170//255 180//255
f 141//256 143//256 164//256
f 144//208 146//208 174//208
f 147//257 149//257 173//257
f 150//221 101//258 165//222
f 141//259 152//259 142//259
f 153//260 155//260 176//260
f 156//261 158//261 160//261
f 159//130 112//130 137//130
f 161//130 163//218 178//130
f 160//262 117//262 112//262
f 144//134 143//134 145//134
f 148//263 165//263 149//263
f 166//264 168//264 175//264
f 169//265 166//265 179//265
f 124//266 171//266 138//266
f 170//267 127//267 180//267
f 172//268 173//268 177//268
f 174//228 131//228 139//228
f 157//214 163//218 162//217
f 178//269 142//269 152//269
f 142//270 156//270 143//270
f 154//271 172//271 177//271
f 150//272 169//272 180//272
f 149//273 162//273 173//273
f 155//274 161//274 178//274
f 145//275 156//275 160//275
f 141//276 179//276 166//276
f 145//277 159//277 146//277
f 171//278 144//278 174//278
f 167//243 148//244 147//279
f 146//245 137//245 131//245
f 174//280 138//280 171//280
f 179//281 144//281 170//281
f 101//282 158//282 165//282
f 152//283 176//283 155//283
f 176//284 168//284 153//284
f 141//285 175//285 151//285
f 102//286 180//286 127//286
f 157//287 165//287 158//287
f 173//288 161//288 177//288
f 168//289 147//289 172//289
f 179//290 180//290 169//290
