# Blender v2.79 (sub 0) OBJ File: 'elevator.blend'
# www.blender.org
mtllib elevator-lr.mtl
o Bullet
v -2.000000 0.000000 2.000000
v -2.000000 6.000000 2.000000
v -2.000000 0.000000 -2.000000
v -2.000000 6.000000 -2.000000
v 2.000000 0.000000 2.000000
v 2.000000 6.000000 2.000000
v 2.000000 0.000000 -2.000000
v 2.000000 6.000000 -2.000000
v -2.000000 3.000000 2.000000
v -2.000000 3.000000 -2.000000
v 2.000000 3.000000 -2.000000
v 2.000000 3.000000 2.000000
v -2.000000 4.500000 2.000000
v -2.000000 4.500000 -2.000000
v 2.000000 4.500000 -2.000000
v 2.000000 4.500000 2.000000
v -2.000000 1.500000 -2.000000
v 2.000000 1.500000 -2.000000
v 2.000000 1.500000 2.000000
v -2.000000 1.500000 2.000000
vn -1.0000 0.0000 0.0000
vn 0.0000 0.0000 -1.0000
vn 1.0000 0.0000 0.0000
vn 0.0000 -1.0000 0.0000
vn 0.0000 1.0000 0.0000
vn 0.0000 0.0000 1.0000
usemtl None
s off
f 13//1 2//1 4//1 14//1
f 14//2 4//2 8//2 15//2
f 15//3 8//3 6//3 16//3
f 18//3 11//3 12//3 19//3
f 3//4 7//4 5//4 1//4
f 8//5 4//5 2//5 6//5
f 17//2 10//2 11//2 18//2
f 20//1 9//1 10//1 17//1
f 11//3 15//3 16//3 12//3
f 10//2 14//2 15//2 11//2
f 9//1 13//1 14//1 10//1
f 1//1 20//1 17//1 3//1
f 3//2 17//2 18//2 7//2
f 7//3 18//3 19//3 5//3
f 16//5 15//5 14//5 13//5
f 20//5 19//5 18//5 17//5
f 13//6 16//6 6//6 2//6
f 19//6 20//6 1//6 5//6
o Shaft
v 2.000000 18.000000 -1.999999
v 2.000000 24.000000 -1.999999
v 3.200000 24.000000 2.000001
v 3.200000 18.000000 2.000001
v -2.000000 18.000000 2.000001
v -2.000000 24.000000 2.000001
v -3.200000 24.000000 2.000001
v -3.200000 18.000000 2.000001
v 2.000000 0.000000 -2.000000
v 2.000000 -0.000000 2.000000
v -2.000000 24.000000 -1.999999
v 2.000000 24.000000 2.000001
v -2.000000 0.000000 -2.000000
v -2.000000 -0.000000 2.000000
v 2.000000 18.000000 2.000001
v -2.000000 18.000000 -1.999999
v -2.000000 6.000000 -2.000000
v -2.000000 12.000000 -2.000000
v 2.000000 12.000000 -2.000000
v 2.000000 6.000000 -2.000000
v 3.200000 6.000000 2.000000
v 3.200000 12.000000 2.000000
v 2.000000 12.000000 2.000000
v 2.000000 6.000000 2.000000
v -2.000000 12.000000 2.000000
v -2.000000 6.000000 2.000000
v -3.200000 12.000000 2.000000
v -3.200000 6.000000 2.000000
v 2.000000 -0.000000 2.000000
v -2.000000 -0.000000 2.000000
v -2.000000 0.000000 -2.000000
v -2.000000 -0.000000 2.000000
v -2.000000 6.000000 2.000000
v -2.000000 0.000000 -2.000000
v -2.000000 -0.000000 2.000000
v -2.000000 6.000000 2.000000
v -2.000000 -0.000000 2.000000
v -2.000000 6.000000 2.000000
v 2.000000 -0.000000 2.000000
v -2.000000 -0.000000 2.000000
v -2.000000 -0.000000 2.000000
v -2.000000 6.000000 2.000000
v -2.000000 -0.000000 2.000000
v -2.000000 6.000000 2.000000
v -2.000000 -0.000000 2.000000
v -2.000000 -0.000000 2.000000
v -2.000000 -0.000000 2.000000
v -3.200000 -0.000000 2.000000
v 3.200000 -0.000000 2.000000
vn 0.0000 0.0000 1.0000
vn 0.0000 0.0000 0.0000
usemtl None.001
s off
f 34//7 30//7 49//7 50//7
f 34//8 33//8 51//8 52//8
f 46//7 34//7 52//7 53//7
f 52//8 51//8 54//8 55//8
f 53//7 52//7 55//7 56//7
f 56//7 55//7 63//7 64//7
f 50//7 49//7 59//7 60//7
f 34//7 46//7 58//7 57//7
f 52//7 53//7 62//7 61//7
l 25 35
l 36 38
l 46 48
l 26 31
l 35 43
l 43 45
l 43 44
l 45 46
l 24 35
l 37 38
l 29 33
l 29 30
l 26 32
l 22 31
l 25 26
l 29 40
l 42 43
l 23 32
l 39 40
l 26 27
l 41 44
l 25 45
l 32 35
l 22 32
l 30 44
l 21 39
l 33 37
l 31 36
l 21 22
l 44 46
l 45 47
l 25 28
l 34 65
l 65 66
l 66 67
l 34 68
l 30 69
