# Blender v2.79 (sub 0) OBJ File: 'elevator.blend'
# www.blender.org
mtllib elevator-doors.mtl
o DoorLeft
v -2.000000 -0.000000 2.010000
v 0.000000 -0.000000 2.010000
v 0.000000 2.250000 2.010000
v -2.000000 2.250000 2.010000
v -2.000000 2.250000 2.010000
v 0.000000 2.250000 2.010000
v 0.000000 4.500000 2.010000
v -2.000000 4.500000 2.010000
vn 0.0000 0.0000 1.0000
usemtl DoorMaterial
s 1
f 1//1 2//1 3//1 4//1
f 5//1 6//1 7//1 8//1
o DoorRight
v 0.000000 2.250000 2.010000
v 2.000000 2.250000 2.010000
v 2.000000 4.500000 2.010000
v 0.000000 4.500000 2.010000
v 0.000000 -0.000000 2.010000
v 2.000000 -0.000000 2.010000
v 2.000000 2.250000 2.010000
v 0.000000 2.250000 2.010000
vn 0.0000 -0.0000 1.0000
usemtl DoorMaterial
s 1
f 9//2 10//2 11//2 12//2
f 13//2 14//2 15//2 16//2
