<svg xmlns="http://www.w3.org/2000/svg" viewBox="0 0 527 369" width="527" height="369">
	<style>
		tspan { white-space:pre }
		.shp0 { fill: #b32f24 } 
		.shp1 { fill: #2f2f2f54 } 
		.shp2 { fill: #c83427 } 
		.shp3 { fill: #2d2d2d8f } 
		.shp4 { fill: #f5f7f7 } 
		.shp5 { fill: #3a393963 } 
		.shp6 { fill: #3c3c3c57 } 
		.shp7 { fill: #ffffff91 } 
	</style>
	<path id="Path 109" class="shp0 cndce-color-changeable" d="M407.35,80.07c0.54,-6.32 2.93,-12.11 6.96,-16.55c-0.81,-0.46 -1.61,-0.82 -2.55,-1.02c-55.04,-17.31 -103.74,-36.2 -154.32,-42.94c-19.45,-2.42 -41.86,-4.64 -63.79,-3.98c-3.98,0.13 -7.93,0.36 -11.83,0.69c-2.37,0.2 -4.71,0.43 -7.04,0.72c-2.47,0.31 -4.92,0.66 -7.37,1.07c-1.5,0.26 -3.01,0.54 -4.51,0.82c-4.46,0.89 -8.82,1.99 -13.08,3.29l-0.05,0.03c-1.15,0.36 -2.27,0.71 -3.37,1.1c-1.12,0.38 -2.22,0.79 -3.31,1.2c-29.6,11.17 -55.83,26.87 -76.94,46.27c-0.89,0.81 -1.78,1.63 -2.65,2.47c-7.16,6.83 -13.72,14.1 -19.58,21.8c-1.38,1.81 -2.7,3.65 -4,5.48c-4.54,6.5 -8.62,13.26 -12.14,20.27c-1.02,1.99 -1.99,4.03 -2.9,6.07c-8.77,19.43 -13.56,40.66 -13.56,63.33c0,2.98 0.08,6.02 0.25,9.05c0.1,1.66 0.23,3.31 0.38,5c0.23,2.96 0.59,5.94 0.99,8.92c0.66,4.69 1.5,9.46 2.58,14.25c0.43,1.94 0.87,3.82 1.35,5.71c0.43,1.74 0.89,3.47 1.35,5.15l0.03,0.13c0.48,1.73 0.99,3.44 1.5,5.13c0.51,1.71 1.04,3.42 1.61,5.07c0.56,1.66 1.12,3.31 1.71,4.92l0.05,0.1c0.59,1.61 1.2,3.21 1.81,4.77l0.1,0.28c1.23,3.09 2.53,6.07 3.85,8.97c0.51,1.12 1.05,2.24 1.58,3.34c1.63,3.31 3.31,6.48 5.07,9.59c0.74,1.3 1.5,2.6 2.27,3.87c0.1,0.21 0.23,0.43 0.38,0.64c0.74,1.17 1.45,2.32 2.19,3.46c2.52,3.85 5.15,7.55 7.9,11.04c0.92,1.17 1.84,2.32 2.78,3.44c0.94,1.13 1.89,2.22 2.85,3.32c2.19,2.47 4.44,4.87 6.76,7.14c0.71,0.71 1.45,1.43 2.19,2.12c0.38,0.35 0.74,0.69 1.09,1.01l0.56,0.49c10.84,9.99 22.74,17.85 35.23,23.84c32.74,16.57 72.64,17.67 107.36,15.53c25.04,-1.53 58.2,-5.38 79.14,-18.74c25.24,-15.71 38.78,-51.5 26.41,-75.9c-4.44,-8.21 -16.34,-12.85 -19.48,-18.2v-0.03c21.41,-3.49 44.18,-6.22 64.2,-9.12c12.77,0.97 25.82,1.58 38.7,-0.69c2.09,-0.39 4,-0.89 5.94,-1.43c-3.19,-5.02 -4.87,-11.09 -4.46,-17.39z"/>
	<path id="Path 112" class="shp1" d="M81.56,292.44c-13.9,-34.73 -25,-72.23 -25,-109.73c0,-33.48 2.22,-74.2 9.54,-111.9c-0.88,0.8 -1.76,1.61 -2.61,2.44c-7.16,6.83 -13.72,14.1 -19.58,21.8c-1.38,1.81 -2.7,3.65 -4,5.48c-4.54,6.5 -8.62,13.26 -12.14,20.27c-1.02,1.99 -1.99,4.03 -2.9,6.07c-4.69,10.39 -8.25,21.3 -10.54,32.68c-1.99,9.88 -3.03,20.11 -3.03,30.65c0,2.98 0.08,6.02 0.25,9.05c0.1,1.66 0.23,3.31 0.38,5c0.03,0.43 0.07,0.85 0.11,1.28c0.23,2.54 0.54,5.09 0.89,7.64c0.66,4.69 1.5,9.46 2.58,14.25c0.43,1.94 0.87,3.82 1.35,5.71c0.43,1.74 0.89,3.47 1.35,5.15l0.03,0.13c0.48,1.73 0.99,3.44 1.5,5.13c0.51,1.71 1.04,3.42 1.61,5.07c0.56,1.66 1.12,3.31 1.71,4.92l0.05,0.1c0.59,1.61 1.2,3.21 1.81,4.77l0.1,0.28c1.23,3.09 2.53,6.07 3.85,8.97c0.51,1.12 1.05,2.24 1.58,3.34c1.63,3.31 3.31,6.48 5.07,9.59c0.74,1.3 1.5,2.6 2.27,3.87c0.1,0.21 0.23,0.43 0.38,0.64c0.74,1.17 1.45,2.32 2.19,3.46c2.52,3.85 5.15,7.55 7.9,11.04c0.92,1.17 1.84,2.32 2.78,3.44c0.94,1.13 1.89,2.22 2.85,3.32c2.19,2.47 4.44,4.87 6.76,7.14c0.61,0.61 1.24,1.21 1.87,1.81c12.78,5.4 26.03,14.34 38.45,18.64c1.41,0.58 2.83,1.14 4.26,1.7c-9.4,-13.94 -17.5,-28.47 -23.67,-43.19z"/>
	<path id="Path 113" class="shp2 cndce-color-changeable" d="M402.02,232.36c4.66,7.47 12.82,12.57 22.17,13.31l53.56,3.8c15.8,1.25 29.6,-10.74 30.72,-26.51l0.08,-0.81l9.6,-134.08c0.21,-2.9 0.04,-5.77 -0.64,-8.35c-2.72,-12.14 -12.98,-21.47 -25.87,-22.38l-53.55,-3.79c-9.48,-0.72 -18.14,3.34 -23.76,9.98c-4.04,4.44 -6.44,10.22 -6.97,16.54l-9.8,134.89c-0.41,6.29 1.29,12.36 4.47,17.4z"/>
	<path id="Path 115" class="shp3" d="M401.96,231.37l-0.16,-0.26l0.14,0.27c0,0 0.01,0 0.01,0zM401.01,229.73l-0.02,-0.02v0.02l0.06,0.09zM385.89,225.42c3.94,-0.4 8.46,-1.98 12.48,-2.5l0.04,0.11l-0.01,-0.03c-0.17,-0.66 -0.31,-1.33 -0.44,-2c-0.42,-2.28 -0.57,-4.64 -0.41,-7.03l7.82,-107.67l1.35,-18.65c-4.61,28.08 -9.72,59.88 -15.93,87.08c-2.6,11.46 -4.17,23.96 -6.77,35.94c-0.9,5.11 -0.67,10.12 0.51,14.87c0.47,-0.04 0.91,-0.08 1.36,-0.12z"/>
	<path id="Path 117" class="shp4" d="M431.36,146.08c2.69,4.32 7.42,7.3 12.84,7.72l31.01,2.19c9.17,0.75 17.16,-6.22 17.82,-15.35l0.04,-0.45l5.55,-77.67c0.12,-1.69 0.02,-3.35 -0.37,-4.84c-1.57,-7.04 -7.52,-12.44 -14.99,-12.97l-31.01,-2.19c-5.49,-0.43 -10.52,1.93 -13.78,5.77c-2.33,2.58 -3.72,5.92 -4.04,9.59l-5.67,78.11c-0.24,3.69 0.75,7.18 2.6,10.1z"/>
	<path id="Path 120" class="shp5" d="M506.66,231.15c0.98,-2.56 1.61,-5.31 1.81,-8.19l0.08,-0.81v-0.01c0,0 -0.01,0 -0.01,0l0.28,-3.79l1.27,-17.78c-8.71,8.02 -26.68,12.01 -45.47,12.01c-19.89,0 -40.7,-4.48 -52.43,-13.39c-4.55,0.8 -9.07,1.61 -13.62,2.14l-0.99,13.71c-0.12,1.88 -0.06,3.73 0.18,5.54c0.02,0.15 0.04,0.3 0.06,0.44c0.02,0.17 0.05,0.34 0.07,0.51c0.03,0.19 0.06,0.39 0.1,0.57c0.05,0.29 0.11,0.59 0.18,0.87c0.06,0.31 0.14,0.63 0.22,0.94c0.81,-0.1 1.6,-0.17 2.36,-0.17c0.44,0 0.86,0.02 1.27,0.06c7.81,0.52 9.9,6.25 16.15,9.9c7.93,4.85 19.97,5.22 29.79,5.22c1.79,0 3.5,-0.01 5.1,-0.01c6.11,0 12.83,0.39 19.61,0.39c12.14,0 24.5,-1.24 33.97,-8.16z"/>
	<path id="Path 124" class="shp6" d="M278.71,247.99c-19.29,3.75 -50.6,9.93 -80.09,9.93c-40.84,0 -78.19,-11.85 -75.23,-58.42c4.31,-60.3 102.29,-69.99 161.79,-71.51c-18.49,-4.82 -37.12,-7.34 -57.03,-8.57c-6.97,-0.45 -14.26,-0.75 -21.65,-0.75c-24.37,0 -49.94,3.34 -69.5,16.05c-25.49,15.93 -40.15,44.62 -35.06,74.57c2.55,15.3 15.3,31.87 28.05,41.43c15.3,10.84 29.32,17.18 46.86,19c7.83,0.81 15.67,1.26 23.43,1.26c28.76,0 56.42,-6.18 78.43,-22.99z"/>
	<path id="Path 128" class="shp7" d="M189.01,179.21c22.92,-4.85 45.83,-11.1 68.75,-14.23c13.88,-2.08 27.08,-0.69 40.96,-3.48c3.48,-0.69 11.46,-1.38 13.21,-4.85c2.42,-5.21 -3.83,-9.02 -7.29,-10.77c-12.17,-5.9 -27.79,-6.02 -40.98,-6.02c-14.23,0 -23.27,0.12 -38.41,1.96c-6.04,0.71 -14.38,2.4 -23.15,4.58h-0.06c-10.92,1.5 -21.79,4.96 -32.12,9.21c-5.9,2.44 -27.08,11.1 -25,21.19c1.12,5.07 7.33,6.65 14.82,6.65c10.99,0 24.74,-3.41 29.28,-4.24z"/>
</svg>