<svg xmlns="http://www.w3.org/2000/svg" width="23.451" height="23.456" viewBox="0 0 23.451 23.456">
  <g id="crop" transform="translate(0.45 0.5)">
    <g id="Group_18" data-name="Group 18" transform="translate(5.606)">
      <g id="Group_17" data-name="Group 17">
        <path id="Path_10" class="with-stroke" data-name="Path 10" d="M127.147,15.9H111.753V.5a.5.5,0,0,0-1,0V16.147a.747.747,0,0,0,.743.753h15.65a.5.5,0,0,0,.005-1Z" transform="translate(-110.749)" fill="#363636" stroke="#363636" stroke-width="1"/>
      </g>
    </g>
    <g id="Group_20" data-name="Group 20" transform="translate(15.946 18.782)">
      <g id="Group_19" data-name="Group 19">
        <path id="Path_11" class="with-stroke" data-name="Path 11" d="M317.252,374.2a.5.5,0,0,0-.5.5v2.67a.5.5,0,0,0,1,0V374.7A.5.5,0,0,0,317.252,374.2Z" transform="translate(-316.75 -374.2)" fill="#363636" stroke="#363636" stroke-width="1"/>
      </g>
    </g>
    <g id="Group_22" data-name="Group 22" transform="translate(7.975 5.556)">
      <g id="Group_21" data-name="Group 21">
        <path id="Path_12" class="with-stroke" data-name="Path 12" d="M166.182,110.7h-7.73a.5.5,0,1,0,0,1h7.469v7.569a.5.5,0,1,0,1,0v-7.82A.747.747,0,0,0,166.182,110.7Z" transform="translate(-157.95 -110.7)" fill="#363636" stroke="#363636" stroke-width="1"/>
      </g>
    </g>
    <g id="Group_24" data-name="Group 24" transform="translate(0.05 5.556)">
      <g id="Group_23" data-name="Group 23" transform="translate(0)">
        <path id="Path_13" class="with-stroke" data-name="Path 13" d="M3.483,110.7H.552a.5.5,0,1,0,0,1H3.483a.5.5,0,1,0,0-1Z" transform="translate(-0.05 -110.7)" fill="#363636" stroke="#363636" stroke-width="1"/>
      </g>
    </g>
  </g>
</svg>
