<svg xmlns="http://www.w3.org/2000/svg" width="26.604" height="22.817" viewBox="0 0 26.604 22.817">
  <g id="image" transform="translate(-0.001 -0.5)">
    <path id="Path_17" data-name="Path 17" d="M183.407,101.632a2.658,2.658,0,1,0-2.658-2.658A2.661,2.661,0,0,0,183.407,101.632Zm0-3.757a1.1,1.1,0,1,1-1.1,1.1A1.1,1.1,0,0,1,183.407,97.875Zm0,0" transform="translate(-171.357 -90.838)" fill="#363636"/>
    <path id="Path_18" data-name="Path 18" d="M25.633.5H.972A.973.973,0,0,0,0,1.471V22.345a.973.973,0,0,0,.971.971H25.633a.973.973,0,0,0,.971-.971V1.471A.973.973,0,0,0,25.633.5Zm-.587,1.559V14.394l-4.9-4.9a.821.821,0,0,0-1.159,0L12.05,16.426,7.621,12a.82.82,0,0,0-1.16,0l-4.9,4.9V2.059ZM1.559,21.758V19.1l5.482-5.482L11.47,18.05a.819.819,0,0,0,1.16,0l6.934-6.934L25.046,16.6v5.159Zm0,0" fill="#363636"/>
  </g>
</svg>
