<svg xmlns="http://www.w3.org/2000/svg" width="36.411" height="22.456" viewBox="0 0 36.411 22.456">
  <g id="font" transform="translate(0 -65.175)">
    <path id="Path_14" data-name="Path 14" d="M297.335,66.368V65.175h-5.129v1.193h1.968V86.438h-1.968v1.193h5.129V86.438h-1.968V66.368Z" transform="translate(-260.923)" fill="#333e48"/>
    <g id="Group_25" data-name="Group 25" transform="translate(0 67.721)">
      <path id="Path_15" data-name="Path 15" d="M.221,104.013l6-13.555a2.342,2.342,0,0,1,2.214-1.5h.221a2.309,2.309,0,0,1,2.189,1.5l6,13.555a1.847,1.847,0,0,1,.2.763,1.8,1.8,0,0,1-1.8,1.82,1.929,1.929,0,0,1-1.82-1.3l-1.156-2.706H4.7l-1.205,2.829A1.86,1.86,0,0,1,1.747,106.6,1.743,1.743,0,0,1,0,104.824,2.009,2.009,0,0,1,.221,104.013ZM10.874,99.24,8.487,93.557,6.1,99.24Z" transform="translate(0 -88.957)" fill="#1e252b"/>
      <path id="Path_16" data-name="Path 16" d="M176.011,137.337v-.049c0-2.878,2.19-4.207,5.314-4.207a9.369,9.369,0,0,1,3.223.541V133.4c0-1.55-.96-2.411-2.829-2.411a8.573,8.573,0,0,0-2.583.369,1.582,1.582,0,0,1-.541.1,1.523,1.523,0,0,1-1.55-1.525,1.55,1.55,0,0,1,1.008-1.452,11.481,11.481,0,0,1,4.207-.689,6.088,6.088,0,0,1,4.453,1.476,5.747,5.747,0,0,1,1.427,4.207v6a1.8,1.8,0,0,1-1.82,1.8,1.674,1.674,0,0,1-1.8-1.55V139.7a5.07,5.07,0,0,1-3.985,1.673C178.053,141.372,176.011,139.945,176.011,137.337Zm8.586-.861v-.664a5.8,5.8,0,0,0-2.386-.492c-1.6,0-2.583.64-2.583,1.82v.049c0,1.009.836,1.6,2.042,1.6C183.416,138.789,184.6,137.829,184.6,136.476Z" transform="translate(-157.168 -123.634)" fill="#1e252b"/>
    </g>
  </g>
</svg>
