<svg id="carpet" xmlns="http://www.w3.org/2000/svg" width="22.902" height="22.902" viewBox="0 0 22.902 22.902">
  <g id="Group_26" data-name="Group 26">
    <path id="Path_20" data-name="Path 20" d="M396.447,246h0a.447.447,0,0,0-.447.447h0a.447.447,0,0,0,.447.447h0a.447.447,0,0,0,.447-.447h0A.447.447,0,0,0,396.447,246Z" transform="translate(-378.287 -234.996)" fill="#363636"/>
    <path id="Path_21" data-name="Path 21" d="M375.959,171.67h0a.447.447,0,0,0,.611.164h0a.447.447,0,0,0,.164-.611h0a.447.447,0,0,0-.611-.164h0A.447.447,0,0,0,375.959,171.67Z" transform="translate(-359.084 -163.35)" fill="#363636"/>
    <path id="Path_22" data-name="Path 22" d="M376.122,321.833h0a.447.447,0,0,0,.611-.164h0a.447.447,0,0,0-.164-.611h0a.447.447,0,0,0-.611.164h0A.447.447,0,0,0,376.122,321.833Z" transform="translate(-359.084 -306.64)" fill="#363636"/>
    <path id="Path_23" data-name="Path 23" d="M321.059,116.322h0a.447.447,0,0,0,.164.611h0a.447.447,0,0,0,.611-.164h0a.447.447,0,0,0-.164-.611h0A.447.447,0,0,0,321.059,116.322Z" transform="translate(-306.64 -110.906)" fill="#363636"/>
    <path id="Path_24" data-name="Path 24" d="M321.059,376.57h0a.447.447,0,0,0,.611.164h0a.447.447,0,0,0,.164-.611h0a.447.447,0,0,0-.611-.164h0A.447.447,0,0,0,321.059,376.57Z" transform="translate(-306.64 -359.084)" fill="#363636"/>
    <path id="Path_25" data-name="Path 25" d="M246.447,396.895h0a.447.447,0,0,0,.447-.447h0a.447.447,0,0,0-.447-.447h0a.447.447,0,0,0-.447.447h0A.447.447,0,0,0,246.447,396.895Z" transform="translate(-234.996 -378.287)" fill="#363636"/>
    <path id="Path_26" data-name="Path 26" d="M246.447,96h0a.447.447,0,0,0-.447.447h0a.447.447,0,0,0,.447.447h0a.447.447,0,0,0,.447-.447h0A.447.447,0,0,0,246.447,96Z" transform="translate(-234.996 -91.706)" fill="#363636"/>
    <path id="Path_27" data-name="Path 27" d="M246.226,56.834a.447.447,0,1,0-.164-.611A.447.447,0,0,0,246.226,56.834Z" transform="translate(-234.999 -53.495)" fill="#363636"/>
    <path id="Path_28" data-name="Path 28" d="M171.833,116.322h0a.447.447,0,0,0-.611-.164h0a.447.447,0,0,0-.164.611h0a.447.447,0,0,0,.611.164h0A.447.447,0,0,0,171.833,116.322Z" transform="translate(-163.35 -110.905)" fill="#363636"/>
    <path id="Path_29" data-name="Path 29" d="M171.833,376.57h0a.447.447,0,0,0-.164-.611h0a.447.447,0,0,0-.611.164h0a.447.447,0,0,0,.164.611h0A.447.447,0,0,0,171.833,376.57Z" transform="translate(-163.35 -359.084)" fill="#363636"/>
    <path id="Path_30" data-name="Path 30" d="M116.77,171.059h0a.447.447,0,0,0-.611.164h0a.447.447,0,0,0,.164.611h0a.447.447,0,0,0,.611-.164h0A.447.447,0,0,0,116.77,171.059Z" transform="translate(-110.906 -163.35)" fill="#363636"/>
    <path id="Path_31" data-name="Path 31" d="M116.933,321.222h0a.447.447,0,0,0-.611-.164h0a.447.447,0,0,0-.164.611h0a.447.447,0,0,0,.611.164h0A.447.447,0,0,0,116.933,321.222Z" transform="translate(-110.906 -306.64)" fill="#363636"/>
    <path id="Path_32" data-name="Path 32" d="M96.447,246.895h0a.447.447,0,0,0,.447-.447h0a.447.447,0,0,0-.447-.447h0a.447.447,0,0,0-.447.447h0A.447.447,0,0,0,96.447,246.895Z" transform="translate(-91.706 -234.996)" fill="#363636"/>
    <path id="Path_33" data-name="Path 33" d="M11.451,0A11.645,11.645,0,0,0,0,11.451,11.645,11.645,0,0,0,11.451,22.9,11.645,11.645,0,0,0,22.9,11.451,11.645,11.645,0,0,0,11.451,0Zm0,22.007A10.7,10.7,0,0,1,.895,11.451,10.7,10.7,0,0,1,11.451.895,10.7,10.7,0,0,1,22.007,11.451,10.7,10.7,0,0,1,11.451,22.007Z" fill="#363636"/>
    <path id="Path_34" data-name="Path 34" d="M66.819,60.188a.447.447,0,1,0-.187.875,8.051,8.051,0,1,1-3.371,0,.447.447,0,0,0-.187-.875,8.947,8.947,0,1,0,3.745,0Z" transform="translate(-53.495 -57.485)" fill="#363636"/>
    <path id="Path_35" data-name="Path 35" d="M136,141.368A5.368,5.368,0,1,0,141.368,136,5.374,5.374,0,0,0,136,141.368Zm9.841,0a4.473,4.473,0,1,1-4.473-4.473A4.478,4.478,0,0,1,145.841,141.368Z" transform="translate(-129.917 -129.917)" fill="#363636"/>
    <path id="Path_36" data-name="Path 36" d="M178.9,175.29a.447.447,0,0,0-.445.4,3.134,3.134,0,0,1-2.768,2.768.447.447,0,0,0,0,.889,3.128,3.128,0,0,1,2.768,2.768.447.447,0,0,0,.445.4h0a.447.447,0,0,0,.444-.4,3.134,3.134,0,0,1,2.767-2.767.447.447,0,0,0,0-.889,3.115,3.115,0,0,1-2.768-2.768.447.447,0,0,0-.445-.4Zm1.673,3.61a4.01,4.01,0,0,0-1.681,1.687,3.852,3.852,0,0,0-1.646-1.7,4.01,4.01,0,0,0,1.654-1.663A4.008,4.008,0,0,0,180.573,178.9Z" transform="translate(-167.449 -167.449)" fill="#363636"/>
  </g>
</svg>
