<svg xmlns="http://www.w3.org/2000/svg" width="14.15" height="14.15" viewBox="0 0 14.15 14.15">
  <g id="XMLID_1631_" transform="translate(0.075 0.075)">
    <g id="XMLID_321_" transform="translate(0 0)">
      <path id="XMLID_347_" class="with-stroke" d="M12.633,0H7.909a.273.273,0,0,0-.273.273V2.5a.273.273,0,0,0,.479.18.764.764,0,1,1,0,1,.273.273,0,0,0-.479.18v.072a1.311,1.311,0,0,0-1.271-.144v-1.7a.273.273,0,0,0-.273-.273H1.367A1.369,1.369,0,0,0,0,3.185v9.448A1.369,1.369,0,0,0,1.367,14h9.448a1.369,1.369,0,0,0,1.367-1.367v-.585a.273.273,0,1,0-.547,0v.585a.821.821,0,0,1-.82.82H6.364V11.5a.273.273,0,0,0-.479-.18.764.764,0,1,1,0-1,.273.273,0,0,0,.479-.18V8.182H7.792a1.31,1.31,0,1,0,2.417,0h1.427v1.4a.273.273,0,0,0,.547,0V7.909a.273.273,0,0,0-.273-.273h-.026a1.308,1.308,0,0,0,.144-1.271h1.7A.273.273,0,0,0,14,6.091V1.367A1.369,1.369,0,0,0,12.633,0ZM.547,3.185a.821.821,0,0,1,.82-.82h4.45V4.318A.273.273,0,0,0,6.3,4.5a.764.764,0,1,1,0,1,.273.273,0,0,0-.479.18V7.636H4.39a1.31,1.31,0,1,0-2.417,0H.547ZM5.231,9.51a1.31,1.31,0,1,0,.587,2.516v1.427H1.367a.821.821,0,0,1-.82-.82V8.182H2.5A.273.273,0,0,0,2.68,7.7a.764.764,0,1,1,1,0,.273.273,0,0,0,.18.479H5.818V9.609a1.31,1.31,0,0,0-.587-.1ZM9.5,8.115a.764.764,0,1,1-1,0,.273.273,0,0,0-.18-.479H6.364V6.208a1.308,1.308,0,0,0,1.271-.144v.026a.273.273,0,0,0,.273.273h1.7a1.311,1.311,0,0,0,.144,1.271H9.682a.273.273,0,0,0-.18.479Zm3.951-2.3H11.5a.273.273,0,0,0-.18.479.764.764,0,1,1-1,0,.273.273,0,0,0-.18-.479H8.182V4.39a1.31,1.31,0,1,0,0-2.417V.547h4.45a.821.821,0,0,1,.82.82Z" transform="translate(0 0)" fill="#363636" stroke="#363636" stroke-width="0.15"/>
      <path id="XMLID_351_" class="with-stroke" d="M425.783,385.62a.274.274,0,1,0,.193.08A.275.275,0,0,0,425.783,385.62Z" transform="translate(-413.875 -375.076)" fill="#363636" stroke="#363636" stroke-width="0.15"/>
    </g>
  </g>
</svg>
