<svg xmlns="http://www.w3.org/2000/svg" width="14.053" height="14.053" viewBox="0 0 14.053 14.053">
  <g id="Solid" transform="translate(-24 -24)">
    <path id="Path_7" data-name="Path 7" d="M144.445,34.933a.727.727,0,0,0,1.028,0l2.741-2.741a.727.727,0,0,0-1.028-1.028l-1.5,1.5V24.727a.727.727,0,0,0-1.454,0v7.937l-1.5-1.5a.727.727,0,0,0-1.028,1.028Z" transform="translate(-113.932)" fill="#363636"/>
    <path id="Path_8" data-name="Path 8" d="M37.327,232a.727.727,0,0,0-.727.727V238.3H25.454v-5.573a.727.727,0,0,0-1.454,0v5.815a1.211,1.211,0,0,0,1.212,1.211h11.63a1.211,1.211,0,0,0,1.212-1.211v-5.815A.727.727,0,0,0,37.327,232Z" transform="translate(0 -201.7)" fill="#363636"/>
  </g>
</svg>
