<svg xmlns="http://www.w3.org/2000/svg" width="13.625" height="14.5" viewBox="0 0 13.625 14.5">
  <g id="share" transform="translate(-15.75 0.25)">
    <g id="Group_33" data-name="Group 33" transform="translate(16)">
      <path id="Path_354" class="with-stroke" data-name="Path 354" d="M26.664,9.078a2.459,2.459,0,0,0-1.979,1L20.822,8.1a2.461,2.461,0,0,0-.08-1.617l4.049-2.432a2.451,2.451,0,1,0-.421-.7L20.311,5.789a2.461,2.461,0,1,0,.151,3.052l3.852,1.968a2.461,2.461,0,1,0,2.351-1.731Zm0-8.258a1.641,1.641,0,1,1-1.641,1.641A1.642,1.642,0,0,1,26.664.82Zm-8.2,8.23A1.641,1.641,0,1,1,20.1,7.41,1.642,1.642,0,0,1,18.461,9.051Zm8.2,4.129A1.641,1.641,0,1,1,28.3,11.539,1.642,1.642,0,0,1,26.664,13.18Z" transform="translate(-16)" fill="#363636" stroke="#363636" stroke-width="0.5"/>
    </g>
  </g>
</svg>
