<svg xmlns="http://www.w3.org/2000/svg" width="20.444" height="17.889" viewBox="0 0 20.444 17.889">
  <g id="rotation" transform="translate(0 -1)">
    <path id="Path_1" data-name="Path 1" d="M10.963,6.111a.432.432,0,0,1-.153-.028L5.273,3.953a.427.427,0,0,1,0-.8l5.537-2.13a.43.43,0,0,1,.306,0l5.537,2.13a.426.426,0,0,1,0,.8l-5.537,2.13A.432.432,0,0,1,10.963,6.111ZM6.613,3.556l4.35,1.673,4.35-1.673-4.35-1.673Z" transform="translate(-0.741)" fill="#363636"/>
    <path id="Path_2" data-name="Path 2" d="M10.963,13.3a.432.432,0,0,1-.153-.028l-5.537-2.13a.426.426,0,0,1-.273-.4V3.926a.426.426,0,1,1,.852,0v6.523l5.111,1.966,5.111-1.966V3.926a.426.426,0,1,1,.852,0v6.815a.426.426,0,0,1-.273.4l-5.537,2.13A.432.432,0,0,1,10.963,13.3Z" transform="translate(-0.741 -0.37)" fill="#363636"/>
    <path id="Path_3" data-name="Path 3" d="M11.926,13.667a.426.426,0,0,1-.426-.426V6.426a.426.426,0,1,1,.852,0v6.815A.426.426,0,0,1,11.926,13.667Z" transform="translate(-1.704 -0.741)" fill="#363636"/>
    <path id="Path_4" data-name="Path 4" d="M10.426,21.407a.426.426,0,0,1-.256-.767l1.249-.937-1.249-.937a.426.426,0,1,1,.511-.681l1.7,1.278a.426.426,0,0,1,0,.681l-1.7,1.278A.427.427,0,0,1,10.426,21.407Z" transform="translate(-1.481 -2.519)" fill="#363636"/>
    <path id="Path_5" data-name="Path 5" d="M10.222,19.629A34.129,34.129,0,0,1,6.6,19.448c-1.545-.156-6.6-.819-6.6-2.8,0-.808.834-1.484,2.477-2.007a.437.437,0,0,1,.56.406.423.423,0,0,1-.337.417C1.337,15.9.852,16.376.852,16.648c0,.567,1.81,1.547,5.835,1.952a33.157,33.157,0,0,0,3.535.177.426.426,0,0,1,0,.852Z" transform="translate(0 -2.018)" fill="#363636"/>
    <path id="Path_6" data-name="Path 6" d="M15.416,19.5a.426.426,0,0,1-.034-.85c4.387-.359,6.431-1.407,6.431-2,0-.274-.493-.752-1.884-1.2a.426.426,0,0,1,.258-.812c1.644.523,2.478,1.2,2.478,2.007,0,2.1-5.522,2.714-7.214,2.853h-.035Z" transform="translate(-2.221 -2.018)" fill="#363636"/>
  </g>
</svg>
